<svg width="300" height="95" fill="none" xmlns="http://www.w3.org/2000/svg"><path d="M33.842 21.243v.26c-.144 0-.36.115-.648.345-.173 0-.375.13-.605.39h-.13v-.26c-.26.26-.461.389-.605.389l.13.259c-1.815 1.296-2.838 1.945-3.069 1.945l.13.259c-.029.173-.23.331-.605.475v-.13l.087-.216h-.216l-.26.087c.116.346.245.518.39.518h.086c.749-.49 1.21-.734 1.382-.734v.13c-.547.806-1.166 1.21-1.858 1.21.03.172.116.259.26.259.144 0 .547-.173 1.21-.519l.13.26-1.945 1.469.086.259c0 .086-.317.418-.95.994h.086l.518-.13c.144.087.303.13.476.13a.989.989 0 00.13-.519h.388v.13l-.26.389v.086h.476v.26c-.576.115-3.154 1.915-7.735 5.401-3.514 3.083-6.453 6.036-8.815 8.859-3.284 4.033-4.927 7.922-4.927 11.667l.13.476c0 .086-.043.13-.13.13.375 2.448.778 3.672 1.21 3.672 1.21 0 3.472-1.714 6.785-5.142 1.7-2.593 2.55-4.278 2.55-5.056v-4.537l.734-.864a8.959 8.959 0 01-.13-1.34l.26-.13c.086 0 .13.043.13.13l.259-.13.475.13.605-.346h.26c.979.605 1.468.965 1.468 1.08 1.009.663 1.585 1.11 1.729 1.34l.605-.086c.317 0 .562.605.735 1.815l-.13.518c0 .49-.043 1.83-.13 4.019.346 2.535.879 4.869 1.6 7-.145.087-.26.13-.347.13.116.346.317.519.605.519v.345c-.173 0-.259.044-.259.13.202.576.447 1.152.735 1.728l-.216.13c-.317-.662-.519-.994-.605-.994h-.13c0 .173.403 1.037 1.21 2.593v.087c0 .576-.648.864-1.945.864 0 .173-.288.259-.864.259-1.066-.23-1.887-.763-2.463-1.599-.46-.518-1.08-1.7-1.858-3.543-3.572 3.428-6.15 5.142-7.735 5.142h-1.47c-.835 0-1.814-.374-2.938-1.123-3.14-1.153-5.113-2.579-5.92-4.279-.547-1.498-.821-2.852-.821-4.062.057 0 .086-.043.086-.13-.115 0-.273-.287-.475-.863.173-3.227.576-5.028 1.21-5.402h.389c.23-.461.346-.778.346-.95l-.217.086c-.115 0-.244-.116-.388-.346.259 0 .633-.663 1.123-1.988.115 0 .36-.317.735-.95l.259.086c.144 0 1.167-1.34 3.068-4.019v-.13c-.605.72-1.023 1.08-1.253 1.08l-.13-.215c3.198-4.062 6.77-7.548 10.717-10.458a37.242 37.242 0 013.803-2.679c.086.144.13.26.13.346l-.26.475 1.124-.735h.216v.26h.13v-.26c-.087 0-.13-.028-.13-.086l2.333-1.599c.75-.576 1.7-1.066 2.852-1.47v-.129h-.13c-.547.23-.878.346-.993.346v-.475c.49 0 1.152-.375 1.988-1.124h.216v.389l-.13.216h.13c.374-.23.662-.346.864-.346l.26.13c1.353-.663 2.174-.994 2.462-.994 1.037-.662 1.815-.994 2.334-.994zm-4.451 1.124v.13c0 .115-.317.316-.95.604h-.39v-.389c.202 0 .649-.115 1.34-.345zm-.95 1.21h.086c.172 0 .259-.072.259-.216h-.13c-.144 0-.216.072-.216.216zm-.995-.13l-.13.26v.129h.13c0-.173.087-.26.26-.26v-.129h-.26zM24.508 24.7h.346v.26h-.346v-.26zm-.648.346c.172.029.259.115.259.26-.778.518-1.397 1.008-1.858 1.468-.116 0-.562.245-1.34.735h-.13v-.216c.634-.49 1.052-.735 1.254-.735 0-.288.605-.792 1.815-1.512zm3.457.994h-.13l-.346-.26v.52c-.172.085-.302.129-.389.129v.13h.26c.864-.52 1.354-.779 1.469-.779v-.216c-.115 0-.403.159-.864.476zm-4.062 2.593h.13c.172 0 .259-.087.259-.26v-.13c-.116 0-.245.13-.39.39zm-1.21.605v.13c.086 0 .201.042.345.129v-.26h-.345zm-.994.389v.086h.26v.26h-.26v.129h.13a.907.907 0 01.475-.13c0-.115-.159-.23-.476-.346h-.13zm-3.933.734c0 .23-.158.346-.475.346v.13h.216l.389-.476h-.13zm3.328.087l-.13.259v.13h.13c0-.173.086-.26.26-.26v-.13h-.26zm.605 2.333c.029.173.115.26.26.26.114-.318.23-.476.345-.476h.13c.201.144.36.216.475.216.374-.144.59-.303.648-.475-.173 0-.26-.087-.26-.26v-.086c.202 0 .49-.173.865-.519h.13v.13l-.13.26h.475c0-.087.043-.217.13-.39h-.346v-.216c.058-.259.375-.432.95-.518 0-.173-.071-.26-.215-.26-.576.03-1.729.807-3.457 2.334zm-2.074-1.21v.13c.028.172.1.259.216.259l.13-.26v-.129h-.346zm4.062.605v.13h.086c.173 0 .26-.087.26-.26v-.086h-.13c-.144 0-.216.072-.216.216zm-6.18.735c0 .086-.029.216-.086.389.115 0 .273.086.475.259l.26-.39v-.129l-.26.13-.389-.26zm-.605 1.123h.13c.317-.115.475-.245.475-.389h-.216c-.115 0-.245.13-.389.39zm-1.21.735v.26h.346v-.26h-.346zm-.518.475v.39c.172 0 .259-.087.259-.26v-.13h-.26zm-.476.39c0 .085-.043.2-.13.345h.13l.26-.346h-.26zm-9.334 6.87l.13.26-.26.129h-.129v-.13c.029-.173.115-.26.26-.26zm-1.728 3.198v.13c.115 0 .245-.13.389-.39h-.13c-.173.03-.26.116-.26.26zm60.411-21.477l.13.26-.389.95v.13h.13v-.26h.26v.26l-1.47 2.765v.13h.13c.835-1.585 1.454-2.55 1.858-2.896v.26a135.596 135.596 0 00-3.457 6.352v.13h.13c.057-.346.2-.519.431-.519h.13v.26l-.302.388v.26l.561-.649.26.13c0-.115.13-.245.389-.389v.13c0 .259-.13.605-.39 1.037.087.173.13.36.13.562h-.13l-.259-.13-.13.26c.26 0 .39.086.39.258-.49.202-.764.461-.822.778.202.03.303.116.303.26v.13c0 .2-.533.777-1.599 1.728v.13l.26-.13c.172.029.259.115.259.26-.144 0-.447.575-.908 1.728-.374.432-.691 1.282-.95 2.55l-.519.907h.13l.259-.13c0 .086.043.13.13.13l-1.6 3.327c-.374.519-.633.778-.777.778l.13.26c0 .46-.36.993-1.08 1.598l.129.26-1.426 2.808h-.39l.13.648c-1.094.72-1.67 1.47-1.728 2.247 0 .288-.936 1.657-2.809 4.106.087 0 .36-.173.821-.519v.13a29.33 29.33 0 01-3.716 3.586c0 .433-.62.879-1.858 1.34-.922.605-1.8.907-2.636.907-1.786 0-4.307-1.022-7.563-3.068-2.304-2.477-3.457-5.43-3.457-8.858 0-3.688.88-7.88 2.636-12.575 1.009-1.786 1.715-2.68 2.118-2.68.374 0 .562-.13.562-.388l2.247.648c.691.634 1.037 1.296 1.037 1.988-.605.95-.908 1.613-.908 1.987h.13c-.173 2.852-.346 4.754-.519 5.705a.99.99 0 01.519.13c-.375 1.843-.634 2.866-.778 3.067l.13.26v.777h-.303v-1.166h-.13c0 .316-.086.936-.259 1.858h.26v-.26h.302v.13c-.374.26-.562.475-.562.648v.39h.13v-.52h.26v1.989c0 .201.057.374.172.518l-.173.26c.116.172.173.316.173.431-.115 0-.173.044-.173.13.144 0 .418.922.821 2.766.346.49.519.893.519 1.21h.518c1.729-1.009 3.817-3.14 6.266-6.396l3.414-5.66 7.562-14.218c2.852-5.185 4.538-7.836 5.056-7.951 0 .086.044.13.13.13l-.13.302v.13l.778-.692a.99.99 0 00.519.13c0-.26.187-.475.561-.648zm-2.55 1.858v.389h.13c.145 0 .289-.13.433-.389v-.389h-.13c-.144 0-.288.13-.432.389zm-.388.778v.432c.144 0 .274-.144.389-.432v-.13c-.173.087-.303.13-.39.13zm-1.296 8.772a.804.804 0 01-.173.519h.173l.13-.26v-.259h-.13zm-20.57 8.6h.26v.13l-.39 1.857h-.259c0-.288.13-.95.39-1.988zm-1.037 3.716l-.173.259v.648h.173c0-.23.087-.49.26-.778l-.26-.13zm17.458 1.469h.13c-.26.519-.39.821-.39.907h-.258v-.259c.23-.432.403-.648.518-.648zm-.907 1.296h.259v.303c0 .173-.087.26-.26.26h-.129c.086-.174.13-.361.13-.563zm-5.834 8.254h.13c.172 0 .259-.1.259-.303v-.13c-.115 0-.245.145-.39.433zm-.389.26c0 .172-.086.259-.26.259v.13h.26l.26-.39h-.26zM77.876.76c.086.144.13.303.13.476l.215-.13v.13c-.144.316-.216.605-.216.864h.087l.605-.39.13.26c-1.124 2.881-1.686 4.451-1.686 4.71h-.13l.13.216-1.21 2.81h.346c.086-.577.26-.865.518-.865 0 .115.116.245.346.389.087-.173.13-.303.13-.389h.13c.143.029.216.115.216.26-.346.633-.591.95-.735.95v.13c.173.201.26.36.26.475h.129c.115 0 .273-.245.475-.735v-.605c.115 0 .274-.201.475-.605l-.13-.216.995-2.42c0-.144-.159-.302-.476-.475-.144 0-.317.159-.518.475.115 0 .317.202.605.605-.548.75-.908 1.268-1.08 1.556H77.4V8.02h-.259c0 .461-.086.691-.26.691-.143 0-.215-.072-.215-.216.288-.46.533-1.066.734-1.815.72-1.843 1.08-2.808 1.08-2.895l.346-.26h.13c-.086.347-.13.635-.13.865.26 0 .39.159.39.475l-.26.13.13.692h.216c.029-.404.317-.88.864-1.426 0 .086.043.13.13.13a1.2 1.2 0 01-.605.69c0 .087.043.13.13.13-.26 1.268-.548 2.362-.865 3.284l.26.13c.287-1.152.604-1.844.95-2.074 0 .086.043.13.13.13-.087.892-.216 1.454-.39 1.685h.39c0 .086-.044.13-.13.13l.13.604a366.411 366.411 0 00-3.76 11.495c.634 0 .95.029.95.086l.26-.086a37.8 37.8 0 004.58-.26c.174.087.303.13.39.13.115-.144 1.08-.273 2.895-.389.144.087.26.13.346.13a.99.99 0 01.518-.13c0 .173.072.26.216.26.029-.173.115-.26.26-.26h1.08l.605-.086c0 .058.043.086.13.086 0-.115.72-.273 2.16-.475v.13l3.025-.476a.9.9 0 00.475.13c.03-.173.115-.26.26-.26h.13c.172 0 .33.044.474.13a.906.906 0 01.476-.13l.26.13c0-.115.114-.244.345-.389.144.087.26.13.346.13.028-.144.115-.216.259-.216h.346l-.087.216h.346c0-.23.85-.475 2.549-.734.144.086.303.13.476.13.259 0 .619-.16 1.08-.476 0 .173.115.259.346.259.23 0 .518-.13.864-.389a.9.9 0 01.475.13c.173-.087.303-.13.389-.13l.216.13c.692-.375 1.498-.648 2.42-.821 0-.087.087-.13.26-.13.028.144.1.216.216.216.259 0 .792-.158 1.598-.475.145.086.303.13.476.13h.259v-.13c-.086-.144-.13-.26-.13-.346h.13a.9.9 0 01.475.13l4.235-1.124h.13l-.13-.216v-.13c.144.03.216.116.216.26l.26-.13.259.13a55.14 55.14 0 015.402-1.47h.388v-.345h.476c.806-.144 1.21-.317 1.21-.519l.345.26c.433-.23 1.081-.476 1.945-.735v-.13l.605.13c1.354-.49 2.406-.764 3.155-.821 0-.087.086-.13.259-.13l.216.13 1.21-.519h.259l.346.26h.129l-.129-.26a4.77 4.77 0 001.21-.605h.345c0-.115.13-.23.389-.345 0 .115.116.23.346.345 0-.144.13-.216.389-.216l.605.13c0-.173.072-.26.216-.26.173.087.303.13.389.13l.605-.475h.086l-.086.216v.13h.086c1.354-.432 2.247-.793 2.68-1.08l.605.129c.028-.173.115-.26.259-.26l.216.13h.13v-.13h-.26v-.259l.865.13h.129l-.129-.216v-.13l1.08-.389v.13l-.13.26h.605c.259-.231 1.268-.52 3.025-.865.029-.115 1.08-.432 3.155-.95.028-.173.115-.26.259-.26l.216.13c.403-.173 1.945-.576 4.624-1.21 0-.087.029-.13.086-.13h.994l.605.13v-.476c.115 0 .591-.13 1.426-.388h.475v.13l-.086.258h.086c1.009-.316 1.657-.475 1.945-.475v.087c-.086.23-1.57.677-4.451 1.34l-8.729 2.42v.258h.13c.749-.259 1.195-.389 1.339-.389v.13l.476-.216a.995.995 0 00.345.086c.404-.201.605-.36.605-.475l.605.13c.404-.317.692-.476.865-.476l.605.13c.028-.173.115-.26.259-.26l.216.13c0-.259.533-.46 1.599-.605h.216v.346h.389l-.13-.605h.735l.691-.475h.13l.259.13c.029-.173.101-.26.216-.26h.13c0 .202.086.403.259.605l-.389.475c.087 0 .13.044.13.13h-.13c-.144 0-.216-.115-.216-.346-.173.03-.259.101-.259.216.173.087.302.13.389.13 0 .288-.576.447-1.729.475.087-.144.13-.259.13-.345h-.13c-.115.086-.346.13-.691.13 0 .143.115.215.345.215v.26l-.605.13-.129-.26c0-.086.043-.13.129-.13l-.129-.216v-.13h.389v-.129c-.087 0-.216-.043-.389-.13a1.33 1.33 0 01-.821.26v.259c.173 0 .403.115.691.346h.13l-.216.345c.057.173.086.303.086.39-.922.23-1.527.431-1.815.604-.144 0-.216-.086-.216-.259 1.21-.374 1.815-.62 1.815-.735h-.475V7.89h.216v-.259h-.13c-.518.576-1.08.864-1.685.864-.086-.172-.13-.302-.13-.389h-.086l-.389.26-.216-.13-.13.26h.346v.215c-1.44.433-2.161.72-2.161.865h.13l.821-.13v.13c0 .144-.648.389-1.945.734 0 .087-.072.13-.216.13-.259 0-.389-.173-.389-.519h-.216c-.345.577-.677.865-.994.865v-.13c-.316.173-.59.26-.821.26v-.26c.605-.144.966-.216 1.081-.216l-.13-.26c-4.436 1.21-6.683 1.902-6.741 2.075a46.052 46.052 0 005.315-1.47c0 .087.36.332 1.08.735-.288.144-.777.303-1.469.476v-.13l-.216.13h-.475c.115-.289.634-.447 1.555-.476 0-.173-.086-.259-.259-.259h-.605c-.749.26-1.224.389-1.426.389h-.259c0 .26-.648.49-1.945.691 0 .173-.23.26-.691.26l.086.259c.375-.173.908-.26 1.599-.26h.216c0-.316.245-.475.735-.475h.605v.216h-.216c-.259 0-.749.173-1.469.519-.634 0-1.643.317-3.025.95-.807 0-1.21.116-1.21.346a1 1 0 00-.346-.086l-.519.216c0-.144-.072-.216-.216-.216 0 .288-.446.49-1.339.605l-.26-.13h-.086v.13h.216c0 .144-.072.216-.216.216l-.605-.13c-.029.116-.432.36-1.21.735 0-.087-.043-.13-.13-.13-.086.173-.129.303-.129.39h-.13c0-.174-.043-.26-.129-.26l-.217.13-.259-.13c-.086 0-.288.201-.605.605 0-.144-.072-.216-.216-.216h-.389c-.317.23-1.037.46-2.16.691-.087-.317-.245-.475-.476-.475-.173.086-.302.13-.389.13v.13c.346 0 .519.071.519.215-.49.202-.735.375-.735.519h.13l-.13.216v.13c2.881-.72 5.171-1.412 6.871-2.075.087 0 .13.043.13.13.634-.317 1.08-.476 1.339-.476l.216.13c0-.173 1.383-.62 4.149-1.34 9.449-2.736 14.923-4.263 16.421-4.58v.216L139.8 13.465c-1.153.317-1.801.547-1.945.691-.374 0-2.348.533-5.92 1.6-.259.143-1.8.59-4.624 1.339-.115 0-.518.187-1.21.562a.995.995 0 00-.345-.087c-.087.144-.13.26-.13.346l-.605-.13h-.13v.13h.26v.259c-2.017.375-3.141.735-3.371 1.08-.173-.086-.302-.13-.389-.13-.317.289-1.685.735-4.105 1.34 0 .087-.043.13-.13.13-.144-.086-.259-.13-.345-.13l-.13.216-.605-.086c-.259 0-.533.158-.821.475-.173-.086-.303-.13-.389-.13l-.13.26-.216-.13h-.259c0 .23-.072.346-.216.346h-.259l-.605-.13c0 .173-.202.346-.605.519l-.735-.13c-1.066.72-5.733 1.844-14 3.37-2.017.404-4.64.807-7.866 1.21v-.129c-4.695.75-9.622 1.124-14.778 1.124h-.216c-.289.288-1.095 3.14-2.42 8.556-3.89 12.244-7 20.785-9.334 25.625-.202.72-.72 1.412-1.556 2.074h-.26c-.806 0-1.21-.086-1.21-.259l-.215.13h-.13l-2.16-.821c-.087 0-.217.029-.39.086-.576 0-1.137-.403-1.685-1.21 1.93-4.062 3.342-7.36 4.235-9.896l2.16-5.704c0-.201.447-1.44 1.34-3.716 1.124-3.37 2.29-7.447 3.5-12.23.145 0 .476-.921.994-2.765-3.889-.663-6.467-1.47-7.735-2.42-.403 0-1.498-.806-3.284-2.42v-.389h.26v-.216c-.404-.605-.649-1.368-.735-2.29-.087 0-.13-.043-.13-.13l.13-.259a.907.907 0 01-.13-.475h.13l-.13-.26v-.086c.087-1.21.331-1.815.735-1.815l5.66 2.636 3.63.994.26-.13c.46.144 1.469.346 3.025.605.403-1.037.806-2.333 1.21-3.889a50.186 50.186 0 012.03-6.395c.116-.634.318-.951.606-.951 0-.086-.03-.13-.087-.13 0-.777.317-1.469.95-2.074l-.129-.216c.548-.403.908-.605 1.08-.605 0-.26-.028-.389-.086-.389 0-.173.115-.648.346-1.426h.605c.518-1.642 1.123-2.852 1.815-3.63zm1.08 2.031h.26v.39h-.52v-.13c.03-.173.116-.26.26-.26zm80.549.605v.26c-.576.144-.908.216-.994.216l-.13-.216c.375-.173.749-.26 1.124-.26zm.605.39h.346V4h-.605c.028-.144.115-.216.259-.216zm-.389.215c0 .202-.475.36-1.426.476l-.13-.216c.807-.173 1.325-.26 1.556-.26zm1.685.13h.26c0 .202-.361.317-1.081.346V4.26l.821-.13zm-7 .95v.13h.129c.634-.086.951-.201.951-.346h-.13c-.057 0-.374.072-.95.217zm4.71-.345v.26l-.216-.13c0 .144-.087.216-.259.216h-.13c-.144 0-.216-.072-.216-.217l.821-.13zm-.821.26l-.259.345c.086.144.129.26.129.346h-.129l-.346-.217h-.389l.13.217v.13h-.26c-.115 0-.23-.116-.345-.347.173-.172.662-.33 1.469-.475zm-1.815.345l.216.605-.346.26h-.129c-.173 0-.26-.087-.26-.26h.519v-.13h-.519c0 .173-.072.26-.216.26-.172 0-.259-.087-.259-.26 0-.144.331-.302.994-.475zm-1.815.475h.605c0 .317.072.476.216.476h.994v.13c0 .172-.375.302-1.124.388v-.13l.13-.259c-.432 0-.706-.158-.821-.475v-.13zm-.605.39l-.13.215v.13a.908.908 0 01.476-.13v-.13a.994.994 0 01-.346-.086zm-76.055.085l-.13.605c.116 0 .274-.158.476-.475l-.26-.13h-.086zm74.715.39v.215c.173 0 .26.087.26.26h.345c.173 0 .26-.087.26-.26-.173 0-.26-.072-.26-.216h.346v-.259c-.23.173-.547.26-.951.26zm2.55.345h.216v.26h-.475c.029-.173.115-.26.259-.26zm-77.654.26c0 .115-.072.273-.216.475v.13c.116 0 .274-.16.476-.476l-.26-.13zm69.66.95c.086 0 .201.043.345.13h.13v-.13c-.144 0-.216-.072-.216-.216-.173.029-.259.1-.259.216zm-6.18-.216h.13v.086c0 .173-.072.26-.216.26l-.13-.26.216-.086zm2.895.475c.087.144.13.303.13.476h.13c0-.144.115-.346.345-.605h-.216c-.172.086-.302.13-.389.13zm2.809-.13l.13.26c.144-.086.259-.13.346-.13v-.13h-.476zm.735.346h.086c.173 0 .26-.072.26-.216h-.13c-.144.03-.216.101-.216.216zm5.315-.345h.346v.259h-.346v-.26zM78.48 9.92c.231 0 .433-.403.606-1.21h-.13c-.23 0-.389.404-.475 1.21zm63.697-.691l1.469-.389v-.13h-.13c-.893.116-1.339.289-1.339.519zm4.018-.13h.216c.173-.086.303-.13.389-.13V8.84h-.389c-.144.029-.216.115-.216.26zm5.791-.389l.129.26-.345.259h-.864c0-.144.36-.317 1.08-.519zm-3.5.26h.475c0 .173-.072.259-.216.259h-.259v-.26zm-7.39.345v.26h.13l.259-.13c.144.086.303.13.475.13h.13c0-.116-.158-.23-.475-.346 0 .058-.043.086-.13.086V9.23a1.369 1.369 0 01-.389.086zm8.729-.086h.13c.144 0 .216.072.216.216v.13h-.346V9.23zm-16.205 2.29v.13h.346c.288-.173.821-.346 1.599-.519 0 .116.115.245.346.39h.129c-.173-.202-.259-.332-.259-.39.259-.144.504-.216.735-.216l.605.13-.13-.26 3.759-1.08v-.259l-7.13 2.074zm14.995-1.944h.476c0 .173-.087.259-.26.259h-.216v-.26zm-6.525.259v.216c.259 0 .461.043.605.13v-.26l-.605-.086zm-69.184.605v.605h.13l.13-.605h-.26zm67.715 0c.029.144.115.216.259.216h.13c0-.144-.087-.216-.26-.216h-.129zm-7.735.086v.13h.475v-.13h-.475zm12.445 0h.389c0 .173-.086.26-.259.26h-.13v-.26zm-68.32.519v.216c.173-.086.303-.13.39-.13v-.345h-.13c-.173.029-.26.115-.26.259zm-1.426-.13v.346c.145 0 .217-.072.217-.216v-.13h-.217zm69.141-.13v.26l-.605.086c0-.172.202-.288.605-.345zm-1.426.346h.605v.26c-.288.086-.461.13-.519.13l-.086-.26v-.13zm-11.754.994v.13h.259c.144 0 .389-.087.735-.26.144.087.259.13.346.13l.129-.259h-.259c-.202 0-.605.086-1.21.26zm-3.846-.13v.13h.476v-.13h-.476zm2.42.735h.346l.346-.26c.172.087.302.13.388.13l.13-.259c-.173 0-.259-.028-.259-.086-.634.173-.951.331-.951.475zm4.926.13h.13c.173 0 .259-.087.259-.26h-.129c-.173.03-.26.116-.26.26zm1.599 0c0-.087-.043-.13-.129-.13 0 .144-.85.418-2.55.821v.26h.389c.202-.145 1.167-.461 2.895-.951v-.26h-.259l-.346.26zm-5.704 1.08h.389v-.26h-.13c-.172.03-.259.116-.259.26zm1.34 0v.216l1.21-.086v-.13c-.087 0-.202-.043-.346-.13a3.31 3.31 0 01-.864.13zm-56.48.13v.345h.39v-.345h-.39zm53.325.82v.13h.259c.289 0 1.167-.244 2.636-.734v-.13h-.345c-.461.26-1.311.504-2.55.735zm-.216-.345h.216c.173-.086.303-.13.389-.13v-.13h-.389c-.144.03-.216.116-.216.26zm-2.809.735v.216l.865-.13-.13-.216-.735.13zm-.605.086v.13h.519l-.13-.216a1.37 1.37 0 01-.389.086zm2.55.13h.259c.144 0 .216-.072.216-.216h-.216c-.173 0-.259.072-.259.216zm-1.426.13v.259c.259 0 .461.029.605.086 0-.23.23-.345.691-.345v-.26h-.086c-.576.173-.98.26-1.21.26zm-2.809.259v.086h.475c.173 0 .26-.072.26-.216-.087 0-.13-.043-.13-.13-.259.173-.461.26-.605.26zm1.945.086v.13a.908.908 0 00.475-.13l.259.13h.13v-.13c-.259 0-.389-.115-.389-.345-.317.115-.475.23-.475.345zm-3.63.994v.13h.129l1.556-.39c.173.087.303.13.389.13v.13c0 .144-.086.216-.259.216-.173 0-.332-.029-.476-.086l-.734.345-.26-.13c0 .116-.201.274-.605.476h-.216l-.259-.13c0 .173-.202.26-.605.26l.13.259-.26.087c0-.145-.072-.217-.216-.217-.172.087-.302.13-.388.13.172.202.259.36.259.475h.259l-.13-.259v-.13l.605.13c.144 0 .216-.072.216-.216l.26.087h.259l-.13-.217.216-.13c.029.174.116.26.26.26h.259l-.13-.26.216-.129v.26c1.038-.202 1.729-.49 2.075-.865l-.13-.216.389-.605h-.605v.346h-.13v-.346l-1.944.605zm-2.074.692h.518c.144 0 .216-.073.216-.217h-.475c-.173.03-.259.101-.259.216zm-3.112.734v.13h.476v-.26h-.13c-.144.087-.259.13-.346.13zm2.766 0v.13c.029.173.115.259.259.259h.087v-.389h-.346zm-.951.13a.902.902 0 01-.13.475h.346v-.216l.259.086h.346v-.086c0-.173-.072-.26-.216-.26h-.605zm-.605.259c0 .144-.086.216-.259.216.029.173.115.26.259.26h.216v-.13l-.129-.26c.086 0 .129-.028.129-.086h-.216zm-4.105 1.08l.086.216c-.144.087-.259.13-.345.13.028.173.115.26.259.26.864-.346 1.426-.635 1.685-.865.202 0 .432.087.692.26l.129-.26c-.086 0-.129-.043-.129-.13l.605.13.734-.216c0-.173-.072-.26-.216-.26h-.129l-.389.26c0-.173-.029-.26-.087-.26-.173.087-.302.13-.389.13v-.13c-1.267.49-2.103.735-2.506.735zm-1.599.605c.029.144.115.216.259.216.576 0 .893-.115.951-.345l-.605-.13v.26h-.13v-.26h-.216c-.173.029-.259.115-.259.26zm-.951.13v.086l.735.13c0-.115-.13-.23-.389-.346-.144.087-.259.13-.346.13zM87.771 31.139h1.902c4.58 0 8.181 2.06 10.803 6.18.807 1.814 1.397 3.572 1.772 5.271l-.173.778v.648c0 .23.058.447.173.649a27.594 27.594 0 01-2.377 7.475c0 1.009-.749 2.55-2.247 4.624-.922.173-2.031.965-3.327 2.377-.98.432-2.262 1.167-3.846 2.204h.173c1.325-.404 2.117-.605 2.376-.605v.302l-7.476 2.55c-1.987 0-4.047-.75-6.179-2.247-.835-.807-1.844-2.233-3.025-4.278 0-.144-.59-1.628-1.772-4.451-.115-1.268-.273-1.902-.475-1.902 0-3.831 2.017-6.971 6.05-9.42 1.469-.663 2.852-1.138 4.148-1.426 0-.115.043-.173.13-.173 1.354.288 2.261.821 2.722 1.599 0 .202.26.735.778 1.599v.475c0 .605-.576 1.354-1.728 2.247.201.029.302.13.302.303-.806.403-1.498 1.152-2.074 2.247v.302h.173l.82-.475H86l-3.328 2.377c-1.18 1.238-1.93 2.463-2.247 3.673 0 .23.432.547 1.297.95h.778c1.93 0 4.638-.85 8.124-2.55 2.477-1.843 4.234-3.86 5.272-6.049.72-1.325 1.238-3.126 1.555-5.401v-1.124c-.749-1.181-2.39-2.074-4.926-2.68-.95 0-1.743-.114-2.377-.345l-2.722.346v-.346c.144 0 .734-.1 1.772-.303h2.722l.778.13.173-.302-.346-.173c-.893.115-1.628.173-2.204.173l-2.42-.778H87.6c-.23 0-.447.043-.649.13a1.337 1.337 0 00-.605-.13l-.82.13c-.577-.72-.995-1.08-1.254-1.08-.432-.174-.648-.332-.648-.476 0-.115.216-.447.648-.994 0-.432-.273-.85-.82-1.253 1.267-.519 2.707-.778 4.32-.778zm33.966 3.025v.13c-.115.288-.418.432-.908.432v.302h.303c.259-.202 1.08-.447 2.463-.734l.735.172c.057 0 .259-.057.605-.172.921 0 2.52.59 4.796 1.771.778.663 1.167 1.052 1.167 1.167-.086.173-.13.317-.13.432.749.49 1.815 1.455 3.198 2.895 1.325-1.383 3.414-2.693 6.266-3.932l.735-.13v.13c.432-.375 1.498-.764 3.197-1.167v.173l.865-.302c.172.086.316.13.432.13.691-.087 1.08-.13 1.166-.13.116 0 .706.187 1.772.561 0-.144.187-.288.562-.432a51.128 51.128 0 014.667 2.204 8.368 8.368 0 012.766 1.599c1.21.288 2.564 1.743 4.062 4.364 1.065 1.24 1.656 1.916 1.771 2.031.49 1.412.735 2.29.735 2.636-.115 0-.173.044-.173.13.202 0 .303.144.303.432-.202.202-.346 1.225-.433 3.068-1.094 2.622-4.537 5.92-10.327 9.896-5.186 3.544-9.81 6.367-13.872 8.47-3.658 2.506-6.856 4.883-9.593 7.13-6.857 6.597-10.602 10.674-11.235 12.23-1.412 1.958-2.19 2.938-2.334 2.938h-.432v.13l.302.431h-.172l-.26-.13h-.432c0-.23-.201-.374-.605-.431v-.432h-.302c0 .288-.087.432-.26.432h-.172v-.173c0-.173.201-.648.605-1.426l-.303.13c-.202 0-.302-.101-.302-.303 1.066-1.642 1.699-2.463 1.901-2.463v-.13c-.576 0-.864-.144-.864-.432l1.296-1.772.303.13c0-.605.533-1.47 1.598-2.593h.13v.13l-.432.605v.432h.173c.144 0 .389-.288.734-.864v-.476c-.316 0-.475-.086-.475-.259 1.844-2.449 3.011-3.673 3.5-3.673v.302h.303l-.303-.432c.317-.518 1.052-1.397 2.204-2.636v-.13h-.129c-.202.087-.361.13-.476.13 0-.144.346-.475 1.037-.994l.303.13h.129v-.13h-.302c.029-.201.13-.302.302-.302l.303.13h.13v-.13h-.303v-.303c0-.172.159-.259.475-.259v-.302c-1.181.806-1.771 1.282-1.771 1.426-1.21 1.094-1.844 1.642-1.902 1.642h-.129v-.173l.129-.303h-.129c-.116 0-.548.447-1.297 1.34v.13h.26v.302c-.288.49-1.066 1.369-2.334 2.636l-.691-.605c.086-.115.129-.36.129-.734h-.129v-.13c0-.202.187-.303.561-.303l-.129-.302c0-.144.576-.533 1.728-1.167.778-.662 1.801-1.772 3.068-3.327h-.129l-.303.13-.173-.26c.317-.115.62-.46.908-1.037h.259v-.13l-.129-.302a2.809 2.809 0 011.037-.432l-.173-.303.864-.605c-.086 0-.13-.043-.13-.13 1.297-.864 2.031-1.296 2.204-1.296a15.27 15.27 0 002.593-2.506c.72-.519 1.887-1.239 3.5-2.16 0-.404.591-.937 1.772-1.6h-.432v-.172c1.44-1.066 2.362-1.6 2.766-1.6v.173l.259-.172.605.172 1.901-1.037c1.008-.864 1.642-1.296 1.902-1.296v-.173h-.605v-.26c.23 0 1.44-.777 3.629-2.333l3.933-2.506c.115 0 .274-.043.475-.13.144.087.331.13.562.13.547-.49.936-.922 1.167-1.296.691 0 1.037-.39 1.037-1.167h.259v.432h.173c.144 0 .288-.144.432-.432l-.302-.432c0-.087.576-.576 1.728-1.47h.173l.302.173c0-.259.188-.46.562-.605 0-.576.202-.864.605-.864.576-.576.864-1.008.864-1.296.173 0 .418-.548.735-1.642.231 0 .475-.476.735-1.426 0-1.181-2.247-2.06-6.742-2.636-.403 0-.936-.044-1.598-.13-2.564.173-5.042.994-7.433 2.463-2.679 1.786-4.955 4.12-6.828 7-.633.779-1.368 1.945-2.204 3.5l.173.26-1.901 4.667c-.259 0-.792.346-1.599 1.037h-.432c-1.757-1.498-2.636-2.52-2.636-3.068 0-.576-.144-.864-.432-.864 0 .202-.101.302-.303.302h-.302c0-.403-.389-1.282-1.167-2.636.202-.691.547-1.426 1.037-2.203-.086-.145-.129-.332-.129-.562.316-.115.749-.706 1.296-1.772l-.13-.26c.404-.114.836-.647 1.297-1.598-.087 0-.13-.058-.13-.173l.562-.432-.13-.302v-.13l1.426-4.494.173-.735c-.173-1.47-.374-2.204-.605-2.204-4.552 0-9.939 4.38-16.162 13.137 0 .144-.331.763-.993 1.858l-1.772 4.667.432.735-.13.605c.087.172.13.36.13.561l-.735.433h-.432c-.086 0-.129-.044-.129-.13-.202.086-.346.13-.433.13-.115 0-.749-.634-1.901-1.902-.144 0-.576-.62-1.296-1.858-.116 0-.461-.303-1.037-.907 0-1.527.244-2.78.734-3.76-.201 0-.302-.144-.302-.432.288-.836.489-1.282.605-1.34l-.173-.302v-.26c.23-.23.475-.864.734-1.9.346 0 1.023-.735 2.031-2.205.461 0 .85-.389 1.167-1.166l.605-.562-.173-.303c.893-1.44 1.772-2.55 2.636-3.327.202 0 .634-.49 1.297-1.47l3.673-3.37h-.173c-.173.115-.317.173-.432.173v-.173c0-.173.346-.36 1.037-.562.029.202.13.303.302.303.289-.202.519-.303.692-.303v-.432h-.13c-.201.087-.345.13-.432.13v-.13c1.239-.95 2.449-1.584 3.63-1.901h.173zm-1.902 1.167v.13h.433c.144 0 .288-.145.432-.433h-.13c-.317.202-.562.303-.735.303zm15.73 27.958h.13c.403-.144.605-.288.605-.432h-.303c-.144 0-.288.144-.432.432zM125.194 73.79c.057.202.158.302.302.302h.173a1.067 1.067 0 01-.173-.605c-.201.03-.302.13-.302.303zm-3.933 2.636l-.259.432.259.13c0-.288.101-.432.303-.432v-.13h-.303zm-2.16 3.76l.129.302-.259.13h-.173v-.13c.029-.202.13-.302.303-.302zm-3.803 2.938v.432h-.302v-.173c.057-.173.158-.259.302-.259zm-.562.735l.26.13h.475c-.749 1.296-1.282 2.016-1.599 2.16h-.173v-.13c.115-.173.173-.317.173-.432l-.735.735-.172-.303c.691-1.094 1.282-1.815 1.771-2.16zm1.167 2.03l.259.13.173-.302v-.13h-.173c-.172.029-.259.13-.259.303zm-1.901 7.865c.173.087.317.13.432.13v.302c-.259 0-.548.145-.864.433v-.433c0-.144.144-.288.432-.432zm65.467-62.615h1.902c4.58 0 8.181 2.06 10.803 6.18.806 1.814 1.397 3.572 1.772 5.271l-.173.778v.648c0 .23.057.447.173.649a27.626 27.626 0 01-2.377 7.475c0 1.009-.749 2.55-2.247 4.624-.922.173-2.031.965-3.328 2.377-.979.432-2.261 1.167-3.846 2.204h.173c1.325-.404 2.118-.605 2.377-.605v.302l-7.476 2.55c-1.988 0-4.047-.75-6.179-2.247-.836-.807-1.844-2.233-3.025-4.278 0-.144-.591-1.628-1.772-4.451-.115-1.268-.274-1.902-.475-1.902 0-3.831 2.016-6.971 6.05-9.42 1.469-.663 2.852-1.138 4.148-1.426 0-.115.043-.173.13-.173 1.354.288 2.261.821 2.722 1.599 0 .202.259.735.778 1.599v.475c0 .605-.576 1.354-1.729 2.247.202.029.303.13.303.303-.807.403-1.498 1.152-2.074 2.247v.302h.172l.822-.475h.605l-3.328 2.377c-1.181 1.238-1.93 2.463-2.247 3.673 0 .23.432.547 1.296.95h.778c1.93 0 4.638-.85 8.124-2.55 2.478-1.843 4.235-3.86 5.272-6.049.72-1.325 1.239-3.126 1.556-5.401v-1.124c-.749-1.181-2.391-2.074-4.926-2.68-.951 0-1.743-.114-2.377-.345l-2.722.346v-.346c.144 0 .734-.1 1.771-.303h2.723l.778.13.172-.302-.345-.173c-.893.115-1.628.173-2.204.173l-2.42-.778h-.303c-.23 0-.446.043-.648.13a1.336 1.336 0 00-.605-.13l-.821.13c-.576-.72-.994-1.08-1.253-1.08-.432-.174-.648-.332-.648-.476 0-.115.216-.447.648-.994 0-.432-.274-.85-.821-1.253 1.268-.519 2.708-.778 4.321-.778zM215.898.76a.91.91 0 01.129.476l.216-.13v.13c-.144.316-.216.605-.216.864h.087l.605-.39.129.26c-1.123 2.881-1.685 4.451-1.685 4.71h-.13l.13.216-1.21 2.81h.346c.086-.577.259-.865.518-.865 0 .115.116.245.346.389.087-.173.13-.303.13-.389h.129c.144.029.216.115.216.26-.345.633-.59.95-.734.95v.13c.173.201.259.36.259.475h.13c.115 0 .273-.245.475-.735v-.605c.115 0 .274-.201.475-.605l-.129-.216.994-2.42c0-.144-.159-.302-.476-.475-.144 0-.317.159-.518.475.115 0 .317.202.605.605-.548.75-.908 1.268-1.081 1.556h-.216V8.02h-.259c0 .461-.086.691-.259.691-.144 0-.216-.072-.216-.216.288-.46.533-1.066.734-1.815.721-1.843 1.081-2.808 1.081-2.895l.345-.26h.13c-.086.347-.13.635-.13.865.26 0 .389.159.389.475l-.259.13.13.692h.216c.029-.404.317-.88.864-1.426 0 .086.043.13.13.13a1.202 1.202 0 01-.605.69c0 .087.043.13.129.13-.259 1.268-.547 2.362-.864 3.284l.259.13c.288-1.152.605-1.844.951-2.074 0 .086.043.13.13.13-.087.892-.216 1.454-.389 1.685h.389c0 .086-.044.13-.13.13l.13.604a365.315 365.315 0 00-3.76 11.495c.634 0 .951.029.951.086l.259-.086c1.642 0 3.169-.086 4.581-.26.172.087.302.13.389.13.115-.144 1.08-.273 2.895-.389.144.087.259.13.346.13a.986.986 0 01.518-.13c0 .173.072.26.216.26.029-.173.115-.26.259-.26h1.081l.605-.086c0 .058.043.086.129.086 0-.115.721-.273 2.161-.475v.13l3.025-.476a.9.9 0 00.475.13c.029-.173.115-.26.26-.26h.129a.91.91 0 01.475.13.91.91 0 01.476-.13l.259.13c0-.115.115-.244.346-.389.144.087.259.13.346.13.028-.144.115-.216.259-.216h.346l-.087.216h.346c0-.23.85-.475 2.549-.734.144.086.303.13.476.13.259 0 .619-.16 1.08-.476 0 .173.115.259.346.259.23 0 .518-.13.864-.389a.9.9 0 01.475.13c.173-.087.303-.13.389-.13l.216.13c.692-.375 1.498-.648 2.42-.821 0-.087.087-.13.259-.13.029.144.101.216.217.216.259 0 .792-.158 1.598-.475.144.086.303.13.476.13h.259v-.13c-.086-.144-.13-.26-.13-.346h.13a.9.9 0 01.475.13l4.235-1.124h.13l-.13-.216v-.13c.144.03.216.116.216.26l.26-.13.259.13a55.197 55.197 0 015.401-1.47h.389v-.345h.476c.806-.144 1.21-.317 1.21-.519l.345.26c.433-.23 1.081-.476 1.945-.735v-.13l.605.13c1.354-.49 2.405-.764 3.155-.821 0-.087.086-.13.259-.13l.216.13 1.21-.519h.259l.346.26h.129l-.129-.26a4.77 4.77 0 001.21-.605h.345c0-.115.13-.23.389-.345 0 .115.116.23.346.345 0-.144.13-.216.389-.216l.605.13c0-.173.072-.26.216-.26.173.087.303.13.389.13l.605-.475h.086l-.086.216v.13h.086c1.354-.432 2.247-.793 2.68-1.08l.605.129c.028-.173.115-.26.259-.26l.216.13h.13v-.13h-.26v-.259l.864.13h.13l-.13-.216v-.13l1.081-.389v.13l-.13.26h.605c.259-.231 1.268-.52 3.025-.865.029-.115 1.08-.432 3.155-.95.028-.173.115-.26.259-.26l.216.13c.403-.173 1.945-.576 4.624-1.21 0-.087.029-.13.086-.13h.994l.605.13v-.476c.115 0 .591-.13 1.426-.388h.475v.13l-.086.258h.086c1.009-.316 1.657-.475 1.945-.475v.087c-.086.23-1.57.677-4.451 1.34l-8.729 2.42v.258h.13c.749-.259 1.195-.389 1.339-.389v.13l.476-.216a.995.995 0 00.345.086c.404-.201.605-.36.605-.475l.605.13c.404-.317.692-.476.865-.476l.605.13c.028-.173.115-.26.259-.26l.216.13c0-.259.533-.46 1.599-.605h.216v.346h.389l-.13-.605h.735l.691-.475h.13l.259.13c.029-.173.101-.26.216-.26h.13c0 .202.086.403.259.605l-.389.475c.087 0 .13.044.13.13h-.13c-.144 0-.216-.115-.216-.346-.173.03-.259.101-.259.216.173.087.302.13.389.13 0 .288-.577.447-1.729.475.087-.144.13-.259.13-.345h-.13c-.115.086-.346.13-.691.13 0 .143.115.215.345.215v.26l-.605.13-.129-.26c0-.086.043-.13.129-.13l-.129-.216v-.13h.389v-.129c-.087 0-.216-.043-.389-.13a1.33 1.33 0 01-.821.26v.259c.173 0 .403.115.691.346h.13l-.216.345c.057.173.086.303.086.39-.922.23-1.527.431-1.815.604-.144 0-.216-.086-.216-.259 1.21-.374 1.815-.62 1.815-.735h-.475V7.89h.216v-.259h-.13c-.518.576-1.08.864-1.685.864-.087-.172-.13-.302-.13-.389h-.086l-.389.26-.216-.13-.13.26h.346v.215c-1.44.433-2.161.72-2.161.865h.13l.821-.13v.13c0 .144-.648.389-1.945.734 0 .087-.072.13-.216.13-.259 0-.389-.173-.389-.519h-.216c-.345.577-.677.865-.994.865v-.13c-.316.173-.59.26-.821.26v-.26c.605-.144.965-.216 1.081-.216l-.13-.26c-4.436 1.21-6.684 1.902-6.741 2.075a46.052 46.052 0 005.315-1.47c0 .087.36.332 1.08.735-.288.144-.777.303-1.469.476v-.13l-.216.13h-.475c.115-.289.634-.447 1.555-.476 0-.173-.086-.259-.259-.259h-.605c-.749.26-1.224.389-1.426.389h-.259c0 .26-.648.49-1.945.691 0 .173-.23.26-.691.26l.086.259c.375-.173.908-.26 1.599-.26h.216c0-.316.245-.475.735-.475h.605v.216h-.216c-.26 0-.749.173-1.469.519-.634 0-1.643.317-3.025.95-.807 0-1.21.116-1.21.346a1 1 0 00-.346-.086l-.519.216c0-.144-.072-.216-.216-.216 0 .288-.446.49-1.339.605l-.26-.13h-.086v.13h.216c0 .144-.072.216-.216.216l-.605-.13c-.029.116-.432.36-1.21.735 0-.087-.043-.13-.13-.13-.086.173-.129.303-.129.39h-.13c0-.174-.043-.26-.129-.26l-.217.13-.259-.13c-.086 0-.288.201-.605.605 0-.144-.072-.216-.216-.216h-.389c-.317.23-1.037.46-2.16.691-.087-.317-.245-.475-.476-.475-.173.086-.302.13-.389.13v.13c.346 0 .519.071.519.215-.49.202-.735.375-.735.519h.13l-.13.216v.13c2.881-.72 5.171-1.412 6.871-2.075.087 0 .13.043.13.13.634-.317 1.08-.476 1.339-.476l.216.13c0-.173 1.383-.62 4.149-1.34 9.449-2.736 14.923-4.263 16.421-4.58v.216l-14.001 4.019c-1.153.317-1.801.547-1.945.691-.374 0-2.348.533-5.92 1.6-.259.143-1.801.59-4.624 1.339-.115 0-.518.187-1.21.562a.995.995 0 00-.345-.087c-.087.144-.13.26-.13.346l-.605-.13h-.13v.13h.26v.259c-2.017.375-3.141.735-3.371 1.08-.173-.086-.302-.13-.389-.13-.317.289-1.685.735-4.105 1.34 0 .087-.043.13-.13.13-.144-.086-.259-.13-.345-.13l-.13.216-.605-.086c-.259 0-.533.158-.821.475-.173-.086-.303-.13-.389-.13l-.13.26-.216-.13h-.259c0 .23-.072.346-.216.346h-.259l-.605-.13c0 .173-.202.346-.605.519l-.735-.13c-1.066.72-5.733 1.844-14.001 3.37-2.017.404-4.638.807-7.865 1.21v-.129c-4.695.75-9.622 1.124-14.778 1.124h-.217c-.288.288-1.094 3.14-2.419 8.556-3.89 12.244-7.001 20.785-9.334 25.625-.202.72-.721 1.412-1.556 2.074h-.259c-.807 0-1.21-.086-1.21-.259l-.216.13h-.13l-2.161-.821c-.086 0-.216.029-.389.086-.576 0-1.138-.403-1.685-1.21 1.93-4.062 3.342-7.36 4.235-9.896l2.161-5.704c0-.201.446-1.44 1.339-3.716 1.124-3.37 2.29-7.447 3.5-12.23.144 0 .476-.921.994-2.765-3.889-.663-6.467-1.47-7.735-2.42-.403 0-1.498-.806-3.284-2.42v-.389h.259v-.216c-.403-.605-.648-1.368-.734-2.29-.087 0-.13-.043-.13-.13l.13-.259a.902.902 0 01-.13-.475h.13l-.13-.26v-.086c.086-1.21.331-1.815.735-1.815l5.661 2.636 3.629.994.26-.13c.461.144 1.469.346 3.025.605.403-1.037.806-2.333 1.21-3.889a50.06 50.06 0 012.031-6.395c.115-.634.316-.951.605-.951 0-.086-.029-.13-.087-.13 0-.777.317-1.469.951-2.074l-.13-.216c.548-.403.908-.605 1.081-.605 0-.26-.029-.389-.087-.389 0-.173.115-.648.346-1.426h.605c.518-1.642 1.123-2.852 1.815-3.63zm1.08 2.031h.259v.39h-.518v-.13c.029-.173.115-.26.259-.26zm80.549.605v.26c-.576.144-.908.216-.994.216l-.13-.216c.375-.173.749-.26 1.124-.26zm.605.39h.346V4h-.605c.028-.144.115-.216.259-.216zm-.389.215c0 .202-.475.36-1.426.476l-.13-.216c.807-.173 1.325-.26 1.556-.26zm1.685.13h.26c0 .202-.361.317-1.081.346V4.26l.821-.13zm-7 .95v.13h.129c.634-.086.951-.201.951-.346h-.13c-.057 0-.374.072-.95.217zm4.71-.345v.26l-.216-.13c0 .144-.087.216-.259.216h-.13c-.144 0-.216-.072-.216-.217l.821-.13zm-.821.26l-.259.345c.086.144.129.26.129.346h-.129l-.346-.217h-.389l.13.217v.13h-.26c-.115 0-.23-.116-.345-.347.173-.172.662-.33 1.469-.475zm-1.815.345l.216.605-.346.26h-.129c-.173 0-.26-.087-.26-.26h.519v-.13h-.519c0 .173-.072.26-.216.26-.173 0-.259-.087-.259-.26 0-.144.331-.302.994-.475zm-1.815.475h.605c0 .317.072.476.216.476h.994v.13c0 .172-.375.302-1.124.388v-.13l.13-.259c-.432 0-.706-.158-.821-.475v-.13zm-.605.39l-.13.215v.13a.908.908 0 01.476-.13v-.13a.994.994 0 01-.346-.086zm-76.055.085l-.129.605c.115 0 .273-.158.475-.475l-.259-.13h-.087zm74.715.39v.215c.173 0 .26.087.26.26h.345c.173 0 .26-.087.26-.26-.173 0-.26-.072-.26-.216h.346v-.259c-.23.173-.547.26-.951.26zm2.55.345h.216v.26h-.475c.029-.173.115-.26.259-.26zm-77.654.26c0 .115-.072.273-.216.475v.13c.116 0 .274-.16.476-.476l-.26-.13zm69.66.95c.086 0 .201.043.345.13h.13v-.13c-.144 0-.216-.072-.216-.216-.173.029-.259.1-.259.216zm-6.18-.216h.13v.086c0 .173-.072.26-.216.26l-.13-.26.216-.086zm2.895.475c.087.144.13.303.13.476h.13c0-.144.115-.346.345-.605h-.216c-.173.086-.302.13-.389.13zm2.809-.13l.13.26c.144-.086.259-.13.346-.13v-.13h-.476zm.735.346h.086c.173 0 .26-.072.26-.216h-.13c-.144.03-.216.101-.216.216zm5.315-.345h.346v.259h-.346v-.26zM216.503 9.92c.23 0 .432-.403.605-1.21h-.13c-.23 0-.389.404-.475 1.21zm63.695-.691l1.47-.389v-.13h-.13c-.893.116-1.34.289-1.34.519zm4.019-.13h.216c.173-.086.303-.13.389-.13V8.84h-.389c-.144.029-.216.115-.216.26zm5.791-.389l.129.26-.345.259h-.865c0-.144.361-.317 1.081-.519zm-3.5.26h.475c0 .173-.072.259-.216.259h-.259v-.26zm-7.39.345v.26h.13l.259-.13c.144.086.303.13.475.13h.13c0-.116-.158-.23-.475-.346 0 .058-.043.086-.13.086V9.23a1.369 1.369 0 01-.389.086zm8.729-.086h.13c.144 0 .216.072.216.216v.13h-.346V9.23zm-16.205 2.29v.13h.346c.288-.173.821-.346 1.599-.519 0 .116.115.245.346.39h.129c-.173-.202-.259-.332-.259-.39.259-.144.504-.216.735-.216l.605.13-.13-.26 3.759-1.08v-.259l-7.13 2.074zm14.995-1.944h.476c0 .173-.087.259-.26.259h-.216v-.26zm-6.525.259v.216c.259 0 .461.043.605.13v-.26l-.605-.086zm-69.184.605v.605h.13l.13-.605h-.26zm67.715 0c.029.144.115.216.259.216h.13c0-.144-.087-.216-.26-.216h-.129zm-7.735.086v.13h.475v-.13h-.475zm12.445 0h.389c0 .173-.086.26-.259.26h-.13v-.26zm-68.32.519v.216c.173-.086.303-.13.389-.13v-.345h-.129c-.173.029-.26.115-.26.259zm-1.426-.13v.346c.144 0 .216-.072.216-.216v-.13h-.216zm69.141-.13v.26l-.605.086c0-.172.202-.288.605-.345zm-1.426.346h.605v.26c-.288.086-.461.13-.519.13l-.086-.26v-.13zm-11.754.994v.13h.259c.144 0 .389-.087.735-.26.144.087.259.13.346.13l.129-.259h-.259c-.202 0-.605.086-1.21.26zm-3.846-.13v.13h.476v-.13h-.476zm2.42.735h.346l.345-.26c.173.087.303.13.389.13l.13-.259c-.173 0-.259-.028-.259-.086-.634.173-.951.331-.951.475zm4.926.13h.13c.173 0 .259-.087.259-.26h-.129c-.173.03-.26.116-.26.26zm1.599 0c0-.087-.043-.13-.129-.13 0 .144-.85.418-2.55.821v.26h.389c.202-.145 1.167-.461 2.895-.951v-.26h-.259l-.346.26zm-5.704 1.08h.389v-.26h-.13c-.172.03-.259.116-.259.26zm1.34 0v.216l1.21-.086v-.13c-.087 0-.202-.043-.346-.13a3.31 3.31 0 01-.864.13zm-56.48.13v.345h.389v-.345h-.389zm53.325.82v.13h.259c.289 0 1.167-.244 2.636-.734v-.13h-.345c-.461.26-1.311.504-2.55.735zm-.216-.345h.216c.173-.086.303-.13.389-.13v-.13h-.389c-.144.03-.216.116-.216.26zm-2.809.735v.216l.865-.13-.13-.216-.735.13zm-.605.086v.13h.519l-.13-.216a1.37 1.37 0 01-.389.086zm2.55.13h.259c.144 0 .216-.072.216-.216h-.216c-.173 0-.259.072-.259.216zm-1.426.13v.259c.259 0 .461.029.605.086 0-.23.23-.345.691-.345v-.26h-.086c-.576.173-.98.26-1.21.26zm-2.809.259v.086h.475c.173 0 .26-.072.26-.216-.087 0-.13-.043-.13-.13-.259.173-.461.26-.605.26zm1.945.086v.13a.908.908 0 00.475-.13l.259.13h.13v-.13c-.259 0-.389-.115-.389-.345-.317.115-.475.23-.475.345zm-3.63.994v.13h.129l1.556-.39c.173.087.302.13.389.13v.13c0 .144-.087.216-.259.216-.173 0-.332-.029-.476-.086l-.734.345-.26-.13c0 .116-.201.274-.605.476h-.216l-.259-.13c0 .173-.202.26-.605.26l.13.259-.26.087c0-.145-.072-.217-.216-.217-.172.087-.302.13-.389.13.173.202.26.36.26.475h.259l-.13-.259v-.13l.605.13c.144 0 .216-.072.216-.216l.26.087h.259l-.13-.217.216-.13c.029.174.116.26.26.26h.259l-.13-.26.216-.129v.26c1.038-.202 1.729-.49 2.075-.865l-.13-.216.389-.605h-.605v.346h-.13v-.346l-1.944.605zm-2.075.692h.519c.144 0 .216-.073.216-.217h-.475c-.173.03-.26.101-.26.216zm-3.111.734v.13h.476v-.26h-.13c-.144.087-.259.13-.346.13zm2.766 0v.13c.029.173.115.259.259.259h.086v-.389h-.345zm-.951.13a.902.902 0 01-.13.475h.346v-.216l.259.086h.346v-.086c0-.173-.072-.26-.216-.26h-.605zm-.605.259c0 .144-.086.216-.259.216.029.173.115.26.259.26h.216v-.13l-.129-.26c.086 0 .129-.028.129-.086h-.216zm-4.105 1.08l.086.216c-.144.087-.259.13-.345.13.028.173.115.26.259.26.864-.346 1.426-.635 1.685-.865.202 0 .432.087.692.26l.129-.26c-.086 0-.129-.043-.129-.13l.605.13.734-.216c0-.173-.072-.26-.216-.26h-.129l-.389.26c0-.173-.029-.26-.087-.26-.173.087-.302.13-.389.13v-.13c-1.267.49-2.103.735-2.506.735zm-1.599.605c.029.144.115.216.259.216.576 0 .893-.115.951-.345l-.605-.13v.26h-.13v-.26h-.216c-.173.029-.259.115-.259.26zm-.951.13v.086l.735.13c0-.115-.13-.23-.389-.346-.144.087-.259.13-.346.13zM220.046 30.62h.303c0 .404.057.605.172.605l-.172.735v1.47c0 .114-.044.172-.13.172l.13.303-.13.734h.432c.115-.95.317-1.8.605-2.55h.735c.029-.172.129-.259.302-.259l.605.433.13-.605h.302v1.037c.173 0 .375-.49.605-1.47h.432c0 .404.101.605.303.605v1.167c0 .087-.058.13-.173.13.115.173.173.475.173.907h.13V33.3h.302v.605c-.202.518-.403 2.434-.605 5.747-.202.663-.691 4.019-1.469 10.069-.087 0-.13.158-.13.475l.13.26c-.202.546-.85 4.508-1.945 11.883-.115 0-.504.389-1.166 1.166-2.968-.201-4.451-.504-4.451-.907l-1.038.173c-1.67-.23-2.506-.576-2.506-1.037v-.735c.49 0 1.628-5.142 3.414-15.427.144-1.44.346-2.42.605-2.939l-.173-.302c.202-1.152.749-3.37 1.642-6.655 0-.49.043-.734.13-.734l-.13-.303c.259-.691.461-1.037.605-1.037 0 .087.043.13.13.13.23-1.181.518-2.075.864-2.68l.303.173h.172c0-.201.044-.302.13-.302h.432v-.303zm39.454-8.556h.129v.39l-.129.302c.172.028.259.13.259.302l-.778 1.383v.173h.13c0-.288.259-.62.777-.994v.13c-.028.172-.461.878-1.296 2.117v.173c.778-.49 1.167-.879 1.167-1.167h.129v.173c0 .49-.345 1.008-1.037 1.556l-.259-.173-.173.302v.13h.432l-.129.302c.115 0 .245.144.389.433v.13l-.692 1.123v.172h.303v.13c0 .144-.144.288-.432.432 0-.201-.087-.302-.26-.302l-.259.864h.13l.518-.432h.173c0 .144-.187.331-.562.562l.13.302c0 .144-.346.475-1.037.994.432.029.648.173.648.432-.634 1.181-1.21 1.887-1.729 2.118-.345.46-.604.691-.777.691v.303h.259v-.303c.173 0 .259.144.259.432h.13l1.599-2.117h.129c-.72 1.469-2.131 3.6-4.235 6.395h-.129v-.13l.562-.993h-.13l-1.599 1.383c-.058.288-.274.677-.648 1.166l.259.13h.13l1.167-1.297.129.303c-1.498 2.391-2.376 4.09-2.636 5.1-.086 0-.648.907-1.685 2.722-1.613 1.584-3.068 3.471-4.365 5.66-.691 1.21-1.397 2.68-2.117 4.408-1.498 3.083-2.334 4.74-2.506 4.97l-.908.864c-.115 0-.173-.043-.173-.13l-.259.13c-.461-.346-1.426-.677-2.895-.994 0-.115-.346-.303-1.037-.562l-.26.13c-1.498-.375-2.247-1.181-2.247-2.42-.547-2.506-1.253-6.813-2.117-12.92-.519-1.93-1.224-5.244-2.118-9.94h-.129c0-1.123.49-1.685 1.469-1.685 1.498 0 3.212.792 5.142 2.377.317 0 .663.288 1.038.864 0 .086-.044.13-.13.13.259.749 1.095 4.45 2.506 11.105h-.129c.172.576.259.951.259 1.124h.129l8.859-13.353c0-.058 1.397-2.132 4.192-6.223 0-.172 1.152-1.786 3.457-4.84 0-.374.878-1.555 2.636-3.543.259 0 .691-.1 1.296-.302l.303.13c0-.087.259-.36.778-.822zm-1.729 4.797v.302h.259c0-.23.087-.475.26-.734v-.13c-.116 0-.289.187-.519.562zm-.907 5.834l-.13.302v.13h.13c0-.116.043-.26.129-.432h-.129zm15.21-1.729c3.429 0 6.425 1.368 8.989 4.105.518 1.24.922 2.723 1.21 4.451 0 .087-.044.13-.13.13l.13.864v1.037c0 1.527-1.253 3.428-3.76 5.704-4.782 2.91-7.98 4.365-9.593 4.365-.202-.087-.346-.13-.432-.13 0 .173-.101.26-.303.26-.115 0-.173-.044-.173-.13l-.734.13h-.476c-.144 0-.288-.13-.432-.39l.13-.259c-.403-.49-.749-.734-1.037-.734-1.988-1.786-2.982-3.198-2.982-4.235l.303-.13h2.247c2.65-.518 5.891-2.088 9.723-4.71 1.699-1.7 2.549-2.78 2.549-3.241l-2.074-.389h-1.815c-2.679.23-6.179 1.858-10.501 4.883-2.218 1.96-3.615 4.278-4.191 6.957.95 2.42 4.897 4.826 11.84 7.217 2.103.663 4.811 1.368 8.124 2.117l.13.26c-.202.029-.303.1-.303.216l.303.13c.201 0 .302-.116.302-.346h.735v.216h-.432v.259h.302c1.095 0 1.642.216 1.642.648 0 .23.202.346.605.346v.389c0 .173-.101.26-.302.26h-.735c-.778 0-2.031-.174-3.759-.52v.26h.432v.26h-.432c-.26-.174-.461-.26-.605-.26v-.26h.302v-.13h-.432l-.475.26h-.13c-.749 0-1.152-.13-1.21-.389h.735c0-.144-.101-.216-.303-.216h-.432c0 .144-.202.216-.605.216v.13c.288 0 .835.216 1.642.648l.475-.26h.13v.13l-.13.26h.13c.202-.087.36-.13.475-.13l3.112.994c.403 0 .605.072.605.216h-.303l-1.771-.086h-.173v.086c.086 0 .389.043.907.13v.13c0 .115-.245.287-.734.518-.26-.173-.461-.26-.605-.26l-.303.13c-.778-.346-1.282-.518-1.512-.518h-.13l1.34.778c-.404 0-.605.201-.605.605h-.908c-.807 0-1.455-.173-1.944-.52-3.4-.834-7.001-2.16-10.804-3.975-2.564-1.786-4.321-3.356-5.272-4.71-1.181-1.152-2.131-3.932-2.852-8.34l-.129-1.512c.201-1.93.547-3.342 1.037-4.235.662-1.239 1.772-2.435 3.327-3.587 0-.432.893-1.095 2.679-1.988 1.441-.835 2.492-1.584 3.155-2.247 2.564-1.239 4.969-1.858 7.216-1.858zm8.989 11.797c0 .144-.346.692-1.037 1.642h.129c.49 0 .893-.547 1.21-1.642h-.302zm-1.21 1.772c-.231.72-1.772 1.959-4.624 3.716-2.996 1.498-4.595 2.247-4.797 2.247v.13h.433c4.436-1.354 7.591-3.342 9.463-5.963l-.302-.13h-.173zm-6.439 15.902h.475v-.216h-.172c-.202 0-.303.072-.303.216zm5.575.908h.432v.216h-.432v-.216zm-5.402.734v.26c.086 0 .23.028.432.086l.13-.216c-.202 0-.389-.043-.562-.13zm1.34 1.124c.23 0 .432.043.604.13l.13-.26-.302-.13h-.13c-.202.03-.302.116-.302.26z" fill="#fff"/></svg>