<svg width="219" height="70" fill="none" xmlns="http://www.w3.org/2000/svg"><path d="M24.936 15.821v.19c-.105 0-.263.083-.473.251-.126 0-.273.095-.44.284h-.095v-.19c-.19.19-.336.284-.441.284l.094.19c-1.322.944-2.068 1.416-2.236 1.416l.095.19c-.021.125-.168.24-.441.346v-.095l.063-.157h-.158l-.189.063c.084.252.179.378.284.378h.063c.546-.357.882-.536 1.008-.536v.095c-.4.588-.85.882-1.355.882.021.126.084.189.19.189.104 0 .398-.126.881-.378l.095.189-1.418 1.07.063.19c0 .062-.23.304-.692.724h.063l.377-.095a.66.66 0 00.347.095.721.721 0 00.094-.378H21v.094l-.19.284v.063h.347v.189c-.42.084-2.299 1.396-5.637 3.936-2.562 2.247-4.703 4.4-6.425 6.457-2.394 2.94-3.59 5.774-3.59 8.503l.094.347c0 .063-.031.094-.094.094.273 1.785.567 2.677.882 2.677.881 0 2.53-1.25 4.944-3.748 1.239-1.89 1.858-3.118 1.858-3.684v-3.307l.536-.63a6.523 6.523 0 01-.095-.977l.19-.094c.062 0 .094.031.094.094l.189-.094.346.094.44-.252h.19c.714.441 1.07.704 1.07.788.736.483 1.155.808 1.26.976l.441-.063c.231 0 .41.441.536 1.323l-.095.378c0 .357-.031 1.333-.094 2.929.252 1.847.64 3.548 1.165 5.102a.539.539 0 01-.252.094c.084.252.231.378.441.378v.252c-.126 0-.189.032-.189.095.147.42.325.84.535 1.26l-.157.094c-.23-.483-.378-.724-.44-.724h-.095c0 .126.294.755.881 1.89v.062c0 .42-.472.63-1.417.63 0 .126-.21.189-.63.189-.776-.168-1.375-.556-1.795-1.165-.336-.378-.787-1.239-1.354-2.583-2.604 2.499-4.483 3.748-5.638 3.748h-1.07c-.61 0-1.323-.273-2.142-.819-2.289-.84-3.727-1.879-4.315-3.118-.399-1.092-.598-2.078-.598-2.96.042 0 .063-.032.063-.095-.084 0-.2-.21-.346-.63.126-2.351.42-3.663.881-3.936h.284c.168-.336.252-.567.252-.693l-.158.063c-.084 0-.178-.084-.283-.252.189 0 .462-.483.819-1.449.084 0 .262-.23.535-.693l.19.063c.104 0 .85-.976 2.235-2.929v-.094c-.44.525-.745.787-.913.787l-.095-.157c2.33-2.96 4.934-5.501 7.81-7.622a27.138 27.138 0 012.772-1.953.537.537 0 01.095.252l-.19.347.82-.535h.157v.188h.095v-.188c-.063 0-.095-.021-.095-.064l1.7-1.165c.547-.42 1.24-.777 2.08-1.07V17.9h-.095c-.399.168-.64.252-.724.252v-.347c.357 0 .84-.273 1.448-.818h.158v.283l-.095.157h.095c.273-.168.483-.252.63-.252l.189.095c.986-.483 1.585-.724 1.795-.724.756-.483 1.323-.725 1.7-.725zm-3.244.82v.094c0 .084-.231.23-.693.44h-.284v-.283c.147 0 .473-.084.977-.252zm-.693.881h.063c.126 0 .189-.052.189-.157h-.095c-.105 0-.157.052-.157.157zm-.725-.095l-.094.19v.094h.094c0-.126.063-.189.19-.189v-.095h-.19zm-2.141.914h.252v.189h-.252v-.19zm-.473.252c.126.02.19.084.19.189-.568.378-1.019.735-1.355 1.07-.084 0-.41.179-.976.536h-.095v-.158c.462-.357.767-.535.914-.535 0-.21.44-.577 1.322-1.102zm2.52.724h-.095l-.252-.189v.378a.725.725 0 01-.283.095v.094h.189c.63-.378.987-.567 1.07-.567v-.157c-.083 0-.293.115-.63.346zm-2.96 1.89h.094c.126 0 .189-.063.189-.19v-.094c-.084 0-.178.095-.284.284zm-.882.44v.095a.54.54 0 01.252.095v-.19h-.252zm-.725.284v.063h.19v.19h-.19v.094h.095a.66.66 0 01.346-.095c0-.084-.115-.168-.346-.252h-.095zm-2.866.536c0 .168-.115.252-.346.252v.094h.157l.284-.346h-.095zm2.425.063l-.094.188v.095h.094c0-.126.063-.189.19-.189v-.095h-.19zm.441 1.7c.021.126.084.19.19.19.083-.232.167-.347.251-.347h.095c.147.105.262.157.346.157.273-.105.43-.22.473-.346-.126 0-.19-.063-.19-.19v-.062c.148 0 .358-.126.63-.378h.095v.094l-.095.19h.347a.72.72 0 01.094-.284h-.252v-.158c.042-.189.273-.314.693-.378 0-.125-.052-.189-.157-.189-.42.021-1.26.588-2.52 1.701zm-1.511-.882v.095c.02.126.073.189.157.189l.095-.19v-.094h-.252zm2.96.441v.095h.063c.126 0 .189-.063.189-.19v-.062h-.095c-.105 0-.157.052-.157.157zm-4.504.536c0 .063-.02.157-.063.283.084 0 .2.063.347.19l.189-.284v-.095l-.19.095-.283-.19zm-.44.819h.094c.23-.084.346-.179.346-.284h-.157c-.084 0-.179.095-.284.284zm-.882.535v.189h.252v-.189h-.252zm-.378.346v.284c.126 0 .189-.063.189-.19v-.094h-.19zm-.347.284a.539.539 0 01-.094.252h.094l.19-.252h-.19zM3.71 31.316l.094.19-.189.094H3.52v-.095c.02-.126.084-.189.188-.189zm-1.26 2.331v.095c.084 0 .178-.095.283-.284h-.094c-.126.021-.19.084-.19.189zm44.029-15.653l.094.19-.283.692v.095h.094v-.19h.189v.19l-1.07 2.015v.095h.094c.609-1.155 1.06-1.858 1.354-2.11v.189a98.808 98.808 0 00-2.52 4.63v.094h.095c.042-.252.147-.378.315-.378h.094v.189l-.22.283v.19l.41-.473.188.094c0-.084.095-.178.284-.283v.094c0 .19-.095.441-.284.756a.904.904 0 01.095.41h-.095l-.189-.095-.094.19c.189 0 .283.062.283.188-.357.147-.556.336-.598.567.147.021.22.084.22.189v.094c0 .147-.388.567-1.165 1.26v.095l.189-.095c.126.021.189.084.189.19-.105 0-.325.42-.661 1.259-.273.315-.504.934-.693 1.858l-.378.661h.094l.19-.094c0 .063.03.094.094.094l-1.166 2.426c-.273.377-.462.566-.567.566l.095.19c0 .335-.262.724-.787 1.165l.094.189-1.04 2.047h-.283l.095.472c-.798.525-1.218 1.07-1.26 1.638 0 .21-.682 1.207-2.047 2.992.063 0 .263-.126.598-.378v.094a21.23 21.23 0 01-2.708 2.614c0 .315-.452.64-1.354.977-.672.44-1.313.661-1.922.661-1.301 0-3.138-.745-5.511-2.236-1.68-1.806-2.52-3.958-2.52-6.456 0-2.688.64-5.743 1.922-9.165.735-1.302 1.249-1.953 1.543-1.953.273 0 .41-.094.41-.283l1.637.472c.504.462.756.945.756 1.449-.441.693-.662 1.176-.662 1.449h.095c-.126 2.078-.252 3.464-.378 4.157.147 0 .273.031.378.094-.273 1.344-.462 2.09-.567 2.236l.095.19v.566h-.22v-.85h-.095c0 .23-.063.682-.19 1.354h.19v-.189h.22v.095c-.273.189-.41.346-.41.472v.284h.095v-.378h.19v1.448c0 .147.041.273.125.378l-.126.19c.084.125.126.23.126.314-.084 0-.126.032-.126.095.105 0 .305.672.598 2.015.252.357.378.651.378.882h.378c1.26-.735 2.782-2.288 4.567-4.661l2.488-4.126 5.511-10.361c2.08-3.78 3.307-5.711 3.685-5.795 0 .063.032.094.095.094l-.095.22v.095l.567-.504a.722.722 0 00.378.095c0-.19.137-.347.41-.473zm-1.859 1.355v.283h.095c.105 0 .21-.094.315-.283v-.284h-.095c-.105 0-.21.095-.315.284zm-.283.567v.314c.105 0 .2-.105.283-.314v-.095a.725.725 0 01-.283.095zm-.945 6.393a.586.586 0 01-.126.378h.126l.095-.19v-.188h-.095zM28.4 32.576h.189v.095l-.284 1.354h-.189c0-.21.095-.693.284-1.449zm-.756 2.709l-.126.189v.472h.126c0-.168.063-.357.189-.567l-.189-.094zm12.724 1.07h.094c-.189.378-.283.599-.283.662h-.19v-.19c.169-.314.295-.471.379-.471zm-.662.945h.19v.22c0 .127-.064.19-.19.19h-.094a.902.902 0 00.094-.41zm-4.251 6.016h.094c.126 0 .189-.074.189-.22V43c-.084 0-.178.105-.283.315zm-.284.189c0 .126-.063.189-.189.189v.094h.19l.188-.283h-.189zM57.028.893a.66.66 0 01.095.347l.157-.095v.095a1.54 1.54 0 00-.157.63h.063l.44-.284.095.189c-.819 2.1-1.228 3.244-1.228 3.433h-.095l.095.157-.882 2.047h.252c.063-.42.189-.63.378-.63 0 .084.084.179.252.284a.725.725 0 00.094-.284h.095c.105.021.157.084.157.19-.252.461-.43.692-.535.692v.095c.126.147.189.262.189.346h.094c.084 0 .2-.178.347-.535v-.441c.084 0 .2-.147.346-.441l-.095-.157.725-1.764c0-.105-.116-.22-.346-.347-.105 0-.231.116-.379.347.084 0 .231.147.441.44-.398.547-.66.925-.787 1.135h-.157v-.158h-.19c0 .336-.062.504-.188.504-.105 0-.158-.052-.158-.157.21-.336.389-.777.536-1.323.524-1.344.787-2.047.787-2.11l.252-.19h.094a2.69 2.69 0 00-.094.63c.189 0 .283.116.283.347l-.189.094.095.504h.157c.021-.294.231-.64.63-1.039 0 .063.032.095.095.095a.873.873 0 01-.441.503c0 .063.031.095.094.095a19.419 19.419 0 01-.63 2.394l.19.094c.21-.84.44-1.344.692-1.512 0 .063.032.095.095.095-.063.65-.158 1.06-.284 1.228h.284c0 .063-.032.095-.095.095l.095.44a267.102 267.102 0 00-2.74 8.378c.462 0 .693.02.693.063l.189-.063c1.196 0 2.31-.063 3.338-.19a.71.71 0 00.283.095c.084-.105.788-.2 2.11-.283a.539.539 0 00.252.094.721.721 0 01.378-.094c0 .126.053.189.158.189.02-.126.084-.19.189-.19h.787l.441-.062c0 .042.032.063.095.063 0-.084.525-.2 1.574-.347v.095l2.205-.346c.105.063.22.094.346.094.021-.126.084-.189.19-.189h.094a.66.66 0 01.346.095.66.66 0 01.347-.095l.189.095c0-.084.084-.179.252-.284a.538.538 0 00.252.095c.02-.105.084-.158.188-.158h.252l-.063.158h.252c0-.168.62-.347 1.859-.536a.66.66 0 00.346.095c.189 0 .451-.116.787-.347 0 .126.084.19.252.19.168 0 .378-.095.63-.284.126 0 .242.031.347.094a.726.726 0 01.283-.094l.157.094c.504-.273 1.092-.472 1.764-.598 0-.063.063-.095.19-.095.02.105.073.158.157.158.189 0 .577-.116 1.165-.347a.66.66 0 00.346.095h.19v-.095a.539.539 0 01-.095-.252h.094a.66.66 0 01.347.095l3.086-.819h.095l-.095-.157v-.095c.105.021.158.084.158.19l.189-.095.189.094a39.9 39.9 0 013.936-1.07h.284v-.253h.346c.588-.105.882-.23.882-.378l.252.19c.315-.169.787-.347 1.417-.536v-.095l.441.095c.987-.357 1.753-.556 2.3-.598 0-.063.062-.095.188-.095l.158.095.881-.378h.19l.251.189h.095l-.095-.19c.315-.104.61-.251.882-.44h.252c0-.084.095-.168.284-.252 0 .084.084.168.252.252 0-.105.094-.158.283-.158l.441.095c0-.126.052-.19.157-.19.126.064.22.095.284.095l.44-.346h.064l-.063.157v.095h.063c.987-.315 1.638-.578 1.952-.788l.441.095c.021-.126.084-.189.189-.189l.158.094h.094v-.094h-.189v-.189l.63.094h.095l-.095-.157v-.094l.788-.284v.095l-.095.189h.441c.189-.168.924-.378 2.205-.63.021-.084.787-.315 2.299-.693.021-.126.084-.19.189-.19l.157.095c.294-.126 1.417-.42 3.37-.882 0-.063.021-.094.063-.094h.724l.441.094v-.346c.084 0 .431-.094 1.04-.283h.346v.094l-.063.189h.063c.735-.23 1.207-.346 1.417-.346v.063c-.063.168-1.144.493-3.244.976l-6.361 1.764v.189h.094c.546-.19.871-.284.976-.284v.095l.347-.158a.726.726 0 00.252.063c.294-.147.441-.262.441-.346l.441.094c.293-.23.503-.346.629-.346l.441.094c.021-.126.084-.189.189-.189l.158.095c0-.19.388-.336 1.165-.441h.158v.252h.283l-.095-.441h.536l.504-.347h.094l.189.095c.021-.126.074-.19.158-.19h.094c0 .148.063.295.189.442l-.283.346c.063 0 .094.032.094.095h-.094c-.105 0-.158-.084-.158-.252-.126.02-.189.073-.189.157a.727.727 0 00.284.095c0 .21-.42.325-1.26.346a.536.536 0 00.094-.252h-.094c-.084.063-.252.095-.504.095 0 .105.084.157.252.157v.19l-.441.094-.094-.19c0-.062.031-.094.094-.094l-.094-.157v-.095h.283V5.46a.724.724 0 01-.283-.095.97.97 0 01-.599.19v.188c.126 0 .294.084.504.252h.095l-.158.252a1 1 0 01.063.284c-.672.167-1.113.314-1.323.44-.105 0-.157-.063-.157-.189.882-.272 1.323-.45 1.323-.535h-.347V6.09h.158V5.9h-.095c-.378.42-.787.63-1.228.63a.728.728 0 01-.095-.283h-.063l-.283.189-.157-.094-.095.189h.252v.157c-1.05.315-1.575.525-1.575.63h.095l.598-.095v.095c0 .105-.472.283-1.417.535 0 .063-.053.095-.158.095-.188 0-.283-.126-.283-.378h-.157c-.252.42-.494.63-.725.63v-.095c-.231.126-.43.19-.598.19v-.19c.441-.105.703-.157.787-.157l-.094-.19c-3.234.883-4.871 1.387-4.913 1.513a33.517 33.517 0 003.873-1.071c0 .063.263.241.788.535-.21.105-.567.22-1.071.347v-.095l-.158.095h-.346c.084-.21.462-.326 1.134-.347 0-.126-.063-.189-.189-.189h-.441c-.546.19-.892.284-1.039.284h-.189c0 .189-.473.357-1.418.504 0 .125-.168.188-.503.188l.062.19c.273-.127.662-.19 1.166-.19h.157c0-.23.179-.346.536-.346h.441v.158h-.158c-.189 0-.546.125-1.071.377-.462 0-1.196.231-2.204.693-.588 0-.882.084-.882.252a.728.728 0 00-.252-.063l-.378.158c0-.105-.053-.158-.157-.158 0 .21-.326.357-.977.441l-.189-.094h-.063v.094h.158c0 .105-.053.158-.158.158l-.44-.095c-.022.084-.316.263-.882.536 0-.063-.032-.095-.095-.095a.725.725 0 00-.095.284h-.094c0-.126-.031-.19-.094-.19l-.158.095-.189-.094c-.063 0-.21.147-.44.44 0-.104-.053-.157-.158-.157h-.284c-.23.168-.756.336-1.574.504-.063-.231-.179-.347-.347-.347a.724.724 0 01-.283.095v.095c.252 0 .378.052.378.157-.357.147-.536.273-.536.378h.095l-.095.157v.095c2.1-.525 3.769-1.029 5.008-1.512.063 0 .094.032.094.095.462-.231.788-.347.977-.347l.157.095c0-.126 1.008-.452 3.024-.977 6.886-1.994 10.875-3.107 11.967-3.338v.157l-10.204 2.93c-.84.23-1.312.398-1.417.503-.273 0-1.711.389-4.315 1.165-.189.106-1.312.431-3.37.977-.084 0-.378.136-.882.41a.725.725 0 00-.251-.064.539.539 0 00-.095.252l-.44-.094h-.095v.094h.189v.19c-1.47.272-2.289.535-2.457.787a.725.725 0 00-.283-.095c-.231.21-1.229.535-2.992.976 0 .063-.032.095-.095.095a.538.538 0 00-.252-.095l-.094.158-.441-.063c-.19 0-.388.115-.599.346a.725.725 0 00-.283-.094l-.094.189-.158-.095h-.189c0 .168-.052.252-.157.252h-.19l-.44-.094c0 .126-.147.252-.441.378l-.535-.095c-.777.525-4.179 1.344-10.205 2.457-1.47.294-3.38.588-5.732.882v-.095c-3.422.546-7.012.819-10.77.819h-.158c-.21.21-.798 2.288-1.764 6.236-2.834 8.923-5.102 15.149-6.802 18.676-.147.525-.525 1.029-1.134 1.512h-.19c-.587 0-.881-.063-.881-.19l-.157.095h-.095l-1.575-.598a.999.999 0 00-.283.063c-.42 0-.83-.294-1.228-.882 1.406-2.96 2.435-5.365 3.086-7.212l1.575-4.157c0-.148.325-1.05.976-2.709.819-2.457 1.67-5.428 2.551-8.913.105 0 .346-.672.724-2.015-2.834-.483-4.713-1.071-5.637-1.764-.294 0-1.092-.588-2.394-1.764v-.283h.19v-.158c-.295-.44-.473-.997-.536-1.669-.063 0-.095-.032-.095-.094l.095-.19a.66.66 0 01-.095-.346h.095l-.095-.189v-.063c.063-.882.242-1.323.536-1.323l4.126 1.922 2.645.724.19-.095c.335.105 1.07.252 2.204.441.294-.755.588-1.7.881-2.834a36.58 36.58 0 011.48-4.661c.085-.462.232-.693.442-.693 0-.063-.021-.095-.063-.095 0-.566.23-1.07.693-1.511l-.095-.158c.399-.294.662-.44.787-.44 0-.19-.02-.284-.063-.284 0-.126.084-.473.252-1.04h.441c.378-1.196.82-2.078 1.323-2.645zm.787 1.48h.19v.284h-.379v-.095c.022-.126.084-.189.19-.189zm58.706.441v.19c-.42.104-.662.157-.725.157l-.094-.158a1.94 1.94 0 01.819-.189zm.44.284h.252v.157h-.441c.021-.105.084-.157.189-.157zm-.283.157c0 .147-.346.263-1.039.347l-.095-.158c.588-.126.966-.189 1.134-.189zm1.228.095h.189c0 .147-.262.23-.787.252v-.158l.598-.094zm-5.102.692v.095h.095c.462-.063.693-.147.693-.252h-.095c-.042 0-.273.053-.693.157zm3.433-.251v.188l-.157-.094c0 .105-.063.157-.189.157h-.095c-.105 0-.157-.052-.157-.157l.598-.094zm-.598.188l-.189.252a.536.536 0 01.094.252h-.094l-.252-.157h-.284l.095.157v.095h-.189c-.084 0-.168-.084-.252-.252.126-.126.483-.242 1.071-.347zm-1.323.252l.157.441-.252.19h-.094c-.126 0-.189-.064-.189-.19h.378v-.094h-.378c0 .126-.053.189-.157.189-.126 0-.189-.063-.189-.19 0-.104.241-.22.724-.346zm-1.323.347h.441c0 .23.053.346.158.346h.724v.095c0 .126-.273.22-.819.283v-.094l.095-.19c-.315 0-.515-.115-.599-.346v-.094zm-.441.283l-.094.158v.094a.66.66 0 01.346-.094v-.095a.726.726 0 01-.252-.063zm-55.43.063l-.094.441c.084 0 .2-.115.346-.346l-.189-.095h-.062zm54.454.284v.157c.126 0 .189.063.189.19h.252c.126 0 .189-.064.189-.19-.126 0-.189-.052-.189-.157h.252v-.19c-.168.127-.399.19-.693.19zm1.858.252h.158v.189h-.347c.021-.126.084-.19.189-.19zm-56.595.189c0 .084-.052.2-.157.346v.095c.084 0 .2-.116.346-.347l-.189-.094zm50.769.693c.063 0 .147.031.252.094h.094v-.094c-.105 0-.157-.053-.157-.158-.126.021-.189.074-.189.158zm-4.504-.158h.094v.063c0 .126-.052.189-.157.189l-.094-.189.157-.063zm2.11.347a.66.66 0 01.095.346h.094c0-.105.084-.252.252-.441h-.157a.727.727 0 01-.284.095zm2.047-.095l.095.189a.539.539 0 01.252-.094v-.095h-.347zm.536.252h.063c.126 0 .189-.052.189-.157h-.095c-.105.02-.157.073-.157.157zm3.873-.252h.252v.189h-.252v-.189zM57.469 7.57c.168 0 .315-.294.44-.882h-.094c-.167 0-.283.294-.346.882zm46.422-.504l1.071-.284v-.094h-.094c-.651.084-.977.21-.977.378zm2.929-.095h.158a.724.724 0 01.283-.094v-.095h-.283c-.105.021-.158.084-.158.19zm4.221-.283l.094.189-.252.189h-.63c0-.105.263-.231.788-.378zm-2.551.189h.346c0 .126-.053.189-.158.189h-.188v-.189zm-5.386.252v.189h.094l.189-.095a.663.663 0 00.347.095h.094c0-.084-.115-.168-.346-.252 0 .042-.032.063-.095.063v-.063a.998.998 0 01-.283.063zm6.362-.063h.094c.105 0 .158.052.158.157v.095h-.252v-.252zm-11.81 1.67v.094h.251c.21-.126.599-.252 1.166-.378 0 .084.084.178.252.283h.094c-.126-.147-.189-.241-.189-.283.19-.105.368-.158.536-.158l.441.095-.095-.19 2.74-.787v-.189l-5.197 1.512zm10.928-1.418h.346c0 .126-.063.189-.189.189h-.157v-.19zm-4.756.189v.157c.189 0 .336.032.441.095v-.19l-.441-.062zm-50.422.44v.442h.095l.094-.441h-.189zm49.352 0c.021.106.084.158.189.158h.094c0-.105-.063-.157-.189-.157h-.094zm-5.638.064v.094h.347v-.094h-.347zm9.07 0h.284c0 .126-.063.189-.189.189h-.095v-.19zm-49.792.378v.157a.726.726 0 01.284-.094V8.2h-.095c-.126.02-.189.084-.189.189zm-1.04-.095v.252c.106 0 .158-.052.158-.157v-.095h-.157zM105.75 8.2v.189l-.441.063c0-.126.147-.21.441-.252zm-1.04.252h.441v.189c-.21.063-.336.094-.378.094l-.063-.189v-.094zm-8.566.724v.095h.189c.105 0 .283-.063.535-.19a.538.538 0 00.252.095l.095-.189h-.19c-.146 0-.44.063-.881.189zm-2.803-.094v.094h.346v-.094h-.346zm1.764.535h.251l.252-.189a.72.72 0 00.284.094l.094-.188c-.126 0-.189-.021-.189-.063-.462.125-.692.241-.692.346zm3.59.094h.094c.126 0 .19-.063.19-.189h-.095c-.126.021-.19.084-.19.19zm1.165 0c0-.063-.031-.094-.094-.094 0 .105-.62.304-1.859.598v.19h.284c.147-.106.85-.337 2.11-.694v-.189h-.189l-.252.19zm-4.157.788h.283v-.19h-.094c-.126.022-.19.085-.19.19zm.976 0v.157l.882-.063V10.5a.538.538 0 01-.252-.095c-.23.063-.44.095-.63.095zm-41.163.094v.252h.284v-.252h-.284zm38.864.599v.094h.19c.21 0 .85-.178 1.92-.535v-.095h-.252c-.336.19-.955.368-1.858.536zm-.157-.252h.157a.725.725 0 01.284-.095v-.094h-.284c-.105.02-.157.084-.157.189zm-2.047.535v.158l.63-.095-.095-.157-.535.094zm-.441.063v.095h.377l-.094-.158a1 1 0 01-.283.063zm1.858.095h.189c.105 0 .157-.053.157-.158h-.157c-.126 0-.19.053-.19.158zm-1.04.094v.189c.19 0 .336.021.441.063 0-.168.168-.252.504-.252v-.189h-.063c-.42.126-.714.19-.882.19zm-2.047.189v.063h.347c.126 0 .189-.052.189-.157-.063 0-.095-.032-.095-.095-.189.126-.336.189-.44.189zm1.418.063v.095a.66.66 0 00.346-.095l.189.095h.094v-.095c-.188 0-.283-.084-.283-.252-.23.084-.346.168-.346.252zm-2.646.724v.095h.095l1.133-.284c.126.063.22.095.284.095v.094c0 .105-.063.158-.19.158a.927.927 0 01-.346-.063l-.535.252-.189-.095c0 .084-.147.2-.44.347h-.158l-.19-.095c0 .126-.146.19-.44.19l.094.188-.189.063c0-.105-.052-.157-.157-.157a.725.725 0 01-.284.094c.126.147.19.263.19.347h.188l-.094-.19v-.094l.44.095c.106 0 .158-.053.158-.158l.19.063h.188l-.094-.157.157-.095c.021.126.084.19.19.19h.188l-.094-.19.157-.094v.189c.756-.147 1.26-.357 1.512-.63l-.095-.158.284-.44h-.441v.251h-.095v-.252l-1.417.441zm-1.512.504h.378c.105 0 .158-.052.158-.157h-.347c-.126.02-.189.073-.189.157zm-2.267.536v.094h.346v-.189h-.094a.538.538 0 01-.252.095zm2.015 0v.094c.021.126.084.19.19.19h.062v-.284h-.252zm-.692.094a.662.662 0 01-.095.347h.252v-.158l.189.063h.252v-.063c0-.126-.053-.189-.157-.189h-.442zm-.441.19c0 .104-.063.157-.19.157.022.126.085.189.19.189h.157v-.095l-.094-.189c.063 0 .094-.02.094-.063h-.157zm-2.992.787l.063.157a.539.539 0 01-.252.094c.02.126.084.19.189.19.63-.253 1.039-.463 1.228-.63.147 0 .315.063.504.188l.094-.189c-.063 0-.094-.031-.094-.094l.44.095.536-.158c0-.126-.052-.189-.157-.189h-.095l-.283.189c0-.126-.021-.189-.063-.189a.725.725 0 01-.284.095v-.095c-.924.357-1.532.535-1.826.535zm-1.166.44c.021.105.084.158.19.158.42 0 .65-.084.692-.252l-.44-.095v.19h-.095v-.19h-.158c-.126.021-.189.084-.189.19zm-.692.095v.063l.535.094c0-.084-.095-.168-.284-.252a.539.539 0 01-.251.095zm-17.29 7.684h1.385c3.338 0 5.963 1.502 7.873 4.504.588 1.323 1.019 2.604 1.292 3.842l-.126.567v.473c0 .168.042.325.126.472a20.106 20.106 0 01-1.732 5.449c0 .734-.546 1.858-1.638 3.37-.672.125-1.48.703-2.425 1.732-.714.315-1.648.85-2.803 1.606h.126c.966-.294 1.543-.441 1.732-.441v.22l-5.449 1.858c-1.448 0-2.95-.545-4.503-1.637-.609-.588-1.344-1.627-2.205-3.118 0-.105-.43-1.186-1.291-3.244-.084-.924-.2-1.386-.346-1.386 0-2.792 1.47-5.08 4.409-6.865 1.07-.483 2.078-.83 3.023-1.04 0-.084.032-.126.095-.126.986.21 1.648.599 1.984 1.166 0 .146.189.535.567 1.165v.346c0 .441-.42.987-1.26 1.638.147.021.22.094.22.22-.587.294-1.091.84-1.511 1.638v.22h.126l.598-.346h.441l-2.425 1.732c-.86.903-1.407 1.795-1.638 2.677 0 .168.315.4.945.693h.567c1.407 0 3.38-.62 5.92-1.858 1.806-1.344 3.087-2.813 3.843-4.41.525-.965.903-2.277 1.134-3.936v-.819c-.546-.86-1.743-1.511-3.59-1.952-.693 0-1.27-.084-1.733-.252l-1.984.252v-.252c.105 0 .536-.074 1.291-.22h1.985l.567.094.126-.22-.252-.127c-.651.084-1.187.126-1.607.126l-1.763-.567h-.22c-.169 0-.326.032-.473.095a.974.974 0 00-.441-.095l-.599.095c-.42-.525-.724-.788-.913-.788-.315-.125-.472-.241-.472-.346 0-.084.157-.325.472-.724 0-.315-.2-.62-.598-.914.924-.378 1.974-.567 3.15-.567zm24.754 2.205v.095c-.084.21-.305.315-.662.315v.22h.22c.19-.147.788-.325 1.796-.535l.535.126c.042 0 .19-.043.441-.127.672 0 1.837.43 3.496 1.292.567.483.85.766.85.85a.743.743 0 00-.094.315c.546.357 1.323 1.06 2.33 2.11.966-1.008 2.489-1.963 4.567-2.866l.536-.094v.094c.314-.273 1.091-.556 2.33-.85v.126l.63-.22a.743.743 0 00.315.094c.504-.063.787-.095.85-.095.084 0 .515.137 1.292.41 0-.105.136-.21.409-.315a37.2 37.2 0 013.401 1.606c.735.252 1.407.64 2.016 1.165.882.21 1.869 1.27 2.96 3.181a65.538 65.538 0 001.292 1.48c.357 1.03.535 1.67.535 1.922-.084 0-.126.031-.126.094.147 0 .221.105.221.315-.147.147-.252.892-.315 2.236-.798 1.91-3.307 4.315-7.528 7.212-3.779 2.583-7.149 4.64-10.109 6.173-2.667 1.827-4.997 3.559-6.992 5.197-4.997 4.808-7.726 7.779-8.188 8.913-1.03 1.427-1.596 2.141-1.701 2.141h-.315v.095l.22.315h-.125l-.19-.095h-.314c0-.168-.147-.273-.441-.315v-.315h-.22c0 .21-.064.315-.19.315h-.126v-.126c0-.126.147-.472.441-1.04l-.22.095c-.147 0-.22-.073-.22-.22.776-1.197 1.238-1.795 1.385-1.795v-.095c-.42 0-.63-.105-.63-.315l.945-1.291.22.095c0-.441.389-1.071 1.166-1.89h.094v.094l-.315.441v.315h.126c.105 0 .284-.21.536-.63v-.346c-.231 0-.347-.063-.347-.19 1.344-1.784 2.194-2.676 2.551-2.676v.22h.22l-.22-.315c.231-.377.767-1.018 1.606-1.92v-.095h-.094a.956.956 0 01-.346.094c0-.105.252-.346.755-.724l.22.094h.095v-.094h-.22c.02-.147.094-.22.22-.22l.22.094h.095v-.095h-.22v-.22c0-.126.115-.189.346-.189v-.22c-.86.587-1.291.934-1.291 1.039-.882.798-1.344 1.197-1.386 1.197h-.094v-.126l.094-.22h-.094c-.084 0-.4.325-.945.976v.094h.189v.22c-.21.357-.777.998-1.7 1.922l-.505-.441c.063-.084.095-.263.095-.536h-.095v-.094c0-.147.137-.22.41-.22l-.095-.221c0-.105.42-.389 1.26-.85.567-.483 1.312-1.292 2.236-2.425h-.094l-.22.094-.127-.189c.231-.084.452-.336.662-.756h.189v-.094l-.095-.22c.21-.148.462-.253.756-.316l-.126-.22.63-.441c-.063 0-.095-.032-.095-.095.945-.63 1.48-.944 1.606-.944a11.142 11.142 0 001.89-1.827c.525-.378 1.375-.903 2.551-1.575 0-.294.43-.682 1.291-1.165h-.314v-.126c1.05-.777 1.721-1.165 2.015-1.165v.126l.19-.126.44.126 1.386-.756c.735-.63 1.197-.945 1.386-.945v-.126h-.441v-.189c.168 0 1.049-.567 2.645-1.7l2.866-1.827c.084 0 .2-.032.347-.095a.784.784 0 00.409.095c.399-.357.682-.672.85-.945.504 0 .756-.284.756-.85h.189v.314h.126c.105 0 .21-.104.315-.314l-.22-.315c0-.063.419-.42 1.259-1.071h.126l.221.126c0-.19.136-.336.409-.441 0-.42.147-.63.441-.63.42-.42.63-.735.63-.945.126 0 .304-.399.535-1.197.168 0 .347-.346.536-1.039 0-.86-1.638-1.501-4.913-1.921a9.46 9.46 0 01-1.166-.095c-1.868.126-3.674.725-5.417 1.796-1.952 1.301-3.61 3.002-4.976 5.102-.462.566-.997 1.417-1.606 2.55l.126.19-1.386 3.401c-.189 0-.577.252-1.165.756h-.315c-1.28-1.092-1.921-1.837-1.921-2.236 0-.42-.105-.63-.315-.63 0 .147-.073.22-.22.22h-.22c0-.294-.284-.934-.851-1.92.147-.505.399-1.04.756-1.607a.788.788 0 01-.095-.41c.231-.083.546-.514.945-1.29l-.094-.19c.293-.084.608-.472.944-1.165-.063 0-.094-.042-.094-.126l.41-.315-.095-.22V35l1.04-3.275.125-.536c-.126-1.07-.273-1.606-.44-1.606-3.318 0-7.245 3.192-11.78 9.574 0 .105-.241.557-.724 1.355l-1.291 3.401.315.535-.095.441a.902.902 0 01.095.41l-.536.315h-.315c-.063 0-.094-.032-.094-.095-.147.063-.252.095-.315.095-.084 0-.546-.462-1.386-1.386-.105 0-.42-.451-.945-1.354-.084 0-.336-.22-.755-.662 0-1.112.178-2.026.535-2.74-.147 0-.22-.105-.22-.315.21-.608.356-.934.44-.976l-.126-.22v-.19c.168-.167.347-.63.536-1.385.252 0 .745-.535 1.48-1.606.336 0 .62-.284.85-.85l.441-.41-.126-.22c.651-1.05 1.292-1.859 1.921-2.426.147 0 .462-.356.945-1.07l2.677-2.457h-.126c-.126.084-.23.126-.315.126v-.126c0-.126.252-.262.756-.41.021.148.095.221.22.221.21-.147.379-.22.505-.22v-.315h-.095c-.147.063-.252.094-.315.094v-.094c.903-.693 1.785-1.155 2.646-1.386h.126zm-1.386.85v.095h.315c.105 0 .21-.105.315-.315h-.095c-.23.147-.41.22-.535.22zm11.464 20.377h.094c.294-.105.441-.21.441-.315h-.22c-.105 0-.21.105-.315.315zm-7.559 7.653c.042.147.116.22.22.22h.127a.776.776 0 01-.126-.44c-.147.02-.22.094-.22.22zm-2.866 1.921l-.189.315.19.095c0-.21.073-.315.22-.315v-.095h-.22zm-1.575 2.74l.095.22-.189.095h-.126V59c.021-.147.095-.22.22-.22zm-2.771 2.142v.315h-.22v-.126c.042-.126.115-.19.22-.19zm-.41.535l.19.095h.346c-.546.945-.934 1.47-1.165 1.575h-.126v-.095c.084-.126.126-.231.126-.315l-.536.535-.126-.22c.504-.798.935-1.323 1.292-1.575zm.85 1.48l.19.095.126-.22v-.095h-.126c-.126.021-.19.094-.19.22zm-1.385 5.732a.745.745 0 00.315.095v.22c-.189 0-.399.105-.63.315v-.315c0-.105.105-.21.315-.315zm47.714-45.635h1.386c3.338 0 5.962 1.502 7.873 4.504.588 1.323 1.018 2.604 1.291 3.842l-.126.567v.473c0 .168.042.325.126.472a20.099 20.099 0 01-1.732 5.449c0 .734-.546 1.858-1.638 3.37-.671.125-1.48.703-2.425 1.732-.713.315-1.648.85-2.803 1.606h.126c.966-.294 1.544-.441 1.733-.441v.22l-5.449 1.858c-1.449 0-2.95-.545-4.504-1.637-.608-.588-1.343-1.627-2.204-3.118 0-.105-.431-1.186-1.291-3.244-.084-.924-.2-1.386-.347-1.386 0-2.792 1.47-5.08 4.409-6.865 1.071-.483 2.079-.83 3.024-1.04 0-.084.031-.126.094-.126.987.21 1.648.599 1.984 1.166 0 .146.189.535.567 1.165v.346c0 .441-.42.987-1.259 1.638.146.021.22.094.22.22-.588.294-1.092.84-1.512 1.638v.22h.126l.599-.346h.441l-2.426 1.732c-.86.903-1.406 1.795-1.637 2.677 0 .168.315.4.945.693h.567c1.406 0 3.38-.62 5.92-1.858 1.806-1.344 3.087-2.813 3.843-4.41.525-.965.903-2.277 1.133-3.936v-.819c-.545-.86-1.742-1.511-3.59-1.952-.693 0-1.27-.084-1.732-.252l-1.984.252v-.252c.105 0 .535-.074 1.291-.22h1.984l.567.094.126-.22-.252-.127a13.04 13.04 0 01-1.606.126l-1.764-.567h-.22a1.19 1.19 0 00-.473.095.974.974 0 00-.441-.095l-.598.095c-.42-.525-.724-.788-.913-.788-.315-.125-.473-.241-.473-.346 0-.084.158-.325.473-.724 0-.315-.2-.62-.599-.914.924-.378 1.974-.567 3.15-.567zM157.62.893a.66.66 0 01.095.347l.157-.095v.095a1.54 1.54 0 00-.157.63h.063l.441-.284.094.189c-.819 2.1-1.228 3.244-1.228 3.433h-.095l.095.157-.882 2.047h.252c.063-.42.189-.63.378-.63 0 .084.084.179.252.284a.722.722 0 00.094-.284h.095c.105.021.157.084.157.19-.252.461-.43.692-.535.692v.095c.126.147.189.262.189.346h.094c.084 0 .2-.178.347-.535v-.441c.084 0 .199-.147.346-.441l-.094-.157.724-1.764c0-.105-.115-.22-.346-.347-.105 0-.231.116-.378.347.084 0 .231.147.441.44-.399.547-.662.925-.788 1.135h-.157v-.158h-.189c0 .336-.063.504-.189.504-.105 0-.157-.052-.157-.157.209-.336.388-.777.535-1.323.525-1.344.787-2.047.787-2.11l.252-.19h.095a2.695 2.695 0 00-.095.63c.189 0 .284.116.284.347l-.189.094.094.504h.158c.021-.294.231-.64.63-1.039 0 .063.031.095.094.095a.874.874 0 01-.441.503c0 .063.032.095.095.095a19.417 19.417 0 01-.63 2.394l.189.094c.21-.84.441-1.344.693-1.512 0 .063.031.095.094.095-.063.65-.157 1.06-.283 1.228h.283c0 .063-.031.095-.094.095l.094.44a267.09 267.09 0 00-2.74 8.378c.462 0 .693.02.693.063l.189-.063a27.53 27.53 0 003.338-.19.727.727 0 00.284.095c.084-.105.787-.2 2.11-.283a.539.539 0 00.252.094.721.721 0 01.378-.094c0 .126.052.189.157.189.021-.126.084-.19.189-.19h.787l.441-.062c0 .042.032.063.095.063 0-.084.525-.2 1.575-.347v.095l2.204-.346a.663.663 0 00.347.094c.021-.126.084-.189.189-.189h.094c.126 0 .242.032.346.095a.663.663 0 01.347-.095l.189.095c0-.084.084-.179.252-.284a.539.539 0 00.252.095c.021-.105.084-.158.189-.158h.252l-.063.158h.252c0-.168.619-.347 1.858-.536a.66.66 0 00.346.095c.189 0 .452-.116.788-.347 0 .126.084.19.252.19.168 0 .378-.095.629-.284.126 0 .242.031.347.094a.725.725 0 01.283-.094l.158.094c.504-.273 1.092-.472 1.763-.598 0-.063.063-.095.189-.095.021.105.074.158.158.158.189 0 .577-.116 1.165-.347a.663.663 0 00.347.095h.189v-.095a.54.54 0 01-.095-.252h.095a.66.66 0 01.346.095l3.086-.819h.095l-.095-.157v-.095c.105.021.158.084.158.19l.189-.095.189.094a40.2 40.2 0 013.937-1.07h.283v-.253h.347c.587-.105.881-.23.881-.378l.252.19c.315-.169.788-.347 1.418-.536v-.095l.44.095c.987-.357 1.754-.556 2.3-.598 0-.063.063-.095.189-.095l.157.095.882-.378h.189l.252.189h.094l-.094-.19a3.47 3.47 0 00.882-.44h.252c0-.084.094-.168.283-.252 0 .084.084.168.252.252 0-.105.094-.158.283-.158l.441.095c0-.126.053-.19.158-.19a.71.71 0 00.283.095l.441-.346h.063l-.063.157v.095h.063c.987-.315 1.638-.578 1.953-.788l.441.095c.021-.126.084-.189.189-.189l.157.094h.095v-.094h-.189v-.189l.629.094h.095l-.095-.157v-.094l.788-.284v.095l-.095.189h.441c.189-.168.924-.378 2.205-.63.021-.084.787-.315 2.299-.693.021-.126.084-.19.189-.19l.157.095c.294-.126 1.418-.42 3.37-.882 0-.063.021-.094.063-.094h.725l.441.094v-.346c.084 0 .43-.094 1.039-.283h.346v.094l-.063.189h.063c.735-.23 1.208-.346 1.418-.346v.063c-.063.168-1.145.493-3.244.976l-6.362 1.764v.189h.094c.546-.19.872-.284.977-.284v.095l.346-.158a.726.726 0 00.252.063c.294-.147.441-.262.441-.346l.441.094c.294-.23.504-.346.63-.346l.441.094c.021-.126.084-.189.189-.189l.157.095c0-.19.388-.336 1.165-.441h.158v.252h.283l-.094-.441h.535l.504-.347h.095l.189.095c.021-.126.073-.19.157-.19h.094c0 .148.063.295.189.442l-.283.346c.063 0 .094.032.094.095h-.094c-.105 0-.157-.084-.157-.252-.126.02-.189.073-.189.157.126.063.22.095.283.095 0 .21-.42.325-1.26.346a.54.54 0 00.095-.252h-.095c-.084.063-.252.095-.504.095 0 .105.084.157.252.157v.19l-.441.094-.094-.19c0-.062.031-.094.094-.094l-.094-.157v-.095h.283V5.46a.724.724 0 01-.283-.095.97.97 0 01-.598.19v.188c.125 0 .293.084.503.252h.095l-.158.252a1 1 0 01.063.284c-.671.167-1.112.314-1.322.44-.105 0-.158-.063-.158-.189.882-.272 1.323-.45 1.323-.535h-.346V6.09h.157V5.9h-.095c-.377.42-.787.63-1.228.63a.722.722 0 01-.094-.283h-.063l-.284.189-.157-.094-.095.189h.252v.157c-1.049.315-1.574.525-1.574.63h.094l.598-.095v.095c0 .105-.472.283-1.417.535 0 .063-.052.095-.157.095-.189 0-.284-.126-.284-.378h-.157c-.252.42-.494.63-.725.63v-.095c-.23.126-.43.19-.598.19v-.19c.441-.105.703-.157.787-.157l-.094-.19c-3.233.883-4.871 1.387-4.913 1.513a33.55 33.55 0 003.874-1.071c0 .063.262.241.787.535-.21.105-.567.22-1.071.347v-.095l-.157.095h-.347c.084-.21.462-.326 1.134-.347 0-.126-.063-.189-.189-.189h-.441c-.546.19-.892.284-1.039.284h-.189c0 .189-.472.357-1.417.504 0 .125-.168.188-.504.188l.063.19c.273-.127.661-.19 1.165-.19h.158c0-.23.178-.346.535-.346h.441v.158h-.158c-.189 0-.546.125-1.07.377-.462 0-1.197.231-2.205.693-.588 0-.882.084-.882.252a.728.728 0 00-.252-.063l-.378.158c0-.105-.052-.158-.157-.158 0 .21-.326.357-.977.441l-.188-.094h-.063v.094h.157c0 .105-.052.158-.157.158l-.441-.095c-.021.084-.315.263-.882.536 0-.063-.032-.095-.095-.095a.722.722 0 00-.094.284h-.095c0-.126-.031-.19-.094-.19l-.158.095-.189-.094c-.063 0-.21.147-.441.44 0-.104-.052-.157-.157-.157h-.283c-.231.168-.756.336-1.575.504-.063-.231-.179-.347-.347-.347a.724.724 0 01-.283.095v.095c.252 0 .378.052.378.157-.357.147-.535.273-.535.378h.094l-.094.157v.095c2.099-.525 3.768-1.029 5.007-1.512.063 0 .095.032.095.095.461-.231.787-.347.976-.347l.157.095c0-.126 1.008-.452 3.024-.977 6.887-1.994 10.876-3.107 11.968-3.338v.157l-10.205 2.93c-.839.23-1.312.398-1.417.503-.273 0-1.711.389-4.314 1.165-.189.106-1.313.431-3.37.977-.084 0-.378.136-.882.41a.726.726 0 00-.252-.064.54.54 0 00-.095.252l-.441-.094h-.094v.094h.189v.19c-1.47.272-2.289.535-2.457.787a.724.724 0 00-.283-.095c-.231.21-1.228.535-2.992.976 0 .063-.031.095-.094.095a.539.539 0 00-.252-.095l-.095.158-.441-.063c-.189 0-.388.115-.598.346a.727.727 0 00-.284-.094l-.094.189-.158-.095h-.189c0 .168-.052.252-.157.252h-.189l-.441-.094c0 .126-.147.252-.441.378l-.535-.095c-.777.525-4.178 1.344-10.204 2.457-1.47.294-3.381.588-5.732.882v-.095c-3.423.546-7.013.819-10.771.819h-.158c-.21.21-.798 2.288-1.763 6.236-2.835 8.923-5.102 15.149-6.803 18.676-.147.525-.525 1.029-1.134 1.512h-.189c-.588 0-.882-.063-.882-.19l-.157.095h-.095l-1.574-.598a.968.968 0 00-.284.063c-.42 0-.829-.294-1.228-.882 1.407-2.96 2.435-5.365 3.086-7.212l1.575-4.157c0-.148.325-1.05.976-2.709.819-2.457 1.67-5.428 2.551-8.913.105 0 .347-.672.725-2.015-2.835-.483-4.714-1.071-5.638-1.764-.294 0-1.092-.588-2.393-1.764v-.283h.189v-.158c-.294-.44-.473-.997-.536-1.669-.063 0-.094-.032-.094-.094l.094-.19a.66.66 0 01-.094-.346h.094l-.094-.189v-.063c.063-.882.241-1.323.535-1.323l4.126 1.922 2.645.724.189-.095c.336.105 1.071.252 2.205.441.294-.755.588-1.7.882-2.834a36.56 36.56 0 011.48-4.661c.084-.462.231-.693.441-.693 0-.063-.021-.095-.063-.095 0-.566.231-1.07.693-1.511l-.095-.158c.399-.294.662-.44.788-.44 0-.19-.021-.284-.063-.284 0-.126.084-.473.252-1.04h.441c.378-1.196.818-2.078 1.322-2.645zm.788 1.48h.189v.284h-.378v-.095c.021-.126.084-.189.189-.189zm58.705.441v.19c-.42.104-.662.157-.725.157l-.094-.158a1.94 1.94 0 01.819-.189zm.441.284h.252v.157h-.441c.021-.105.084-.157.189-.157zm-.284.157c0 .147-.346.263-1.039.347l-.095-.158c.588-.126.966-.189 1.134-.189zm1.229.095h.189c0 .147-.263.23-.788.252v-.158l.599-.094zm-5.103.692v.095h.095c.462-.063.693-.147.693-.252h-.095c-.042 0-.273.053-.693.157zm3.433-.251v.188l-.157-.094c0 .105-.063.157-.189.157h-.095c-.105 0-.157-.052-.157-.157l.598-.094zm-.598.188l-.189.252a.536.536 0 01.094.252h-.094l-.252-.157h-.283l.094.157v.095h-.189c-.084 0-.168-.084-.252-.252.126-.126.483-.242 1.071-.347zm-1.323.252l.158.441-.252.19h-.095c-.126 0-.189-.064-.189-.19h.378v-.094h-.378c0 .126-.052.189-.157.189-.126 0-.189-.063-.189-.19 0-.104.241-.22.724-.346zm-1.323.347h.441c0 .23.053.346.158.346h.724v.095c0 .126-.273.22-.819.283v-.094l.095-.19c-.315 0-.515-.115-.599-.346v-.094zm-.44.283l-.095.158v.094a.662.662 0 01.346-.094v-.095a.722.722 0 01-.251-.063zm-55.43.063l-.095.441c.084 0 .2-.115.347-.346l-.189-.095h-.063zm54.453.284v.157c.126 0 .189.063.189.19h.252c.126 0 .189-.064.189-.19-.126 0-.189-.052-.189-.157h.252v-.19c-.168.127-.399.19-.693.19zm1.858.252h.158v.189h-.347c.021-.126.084-.19.189-.19zm-56.595.189c0 .084-.052.2-.157.346v.095c.084 0 .199-.116.346-.347l-.189-.094zm50.769.693c.063 0 .147.031.252.094h.094v-.094c-.105 0-.157-.053-.157-.158-.126.021-.189.074-.189.158zm-4.504-.158h.095v.063c0 .126-.053.189-.158.189l-.094-.189.157-.063zm2.11.347a.66.66 0 01.095.346h.094c0-.105.084-.252.252-.441h-.157a.727.727 0 01-.284.095zm2.048-.095l.094.189a.539.539 0 01.252-.094v-.095h-.346zm.535.252h.063c.126 0 .189-.052.189-.157h-.095c-.105.02-.157.073-.157.157zm3.874-.252h.252v.189h-.252v-.189zM158.061 7.57c.168 0 .315-.294.441-.882h-.094c-.168 0-.284.294-.347.882zm46.423-.504l1.07-.284v-.094h-.094c-.651.084-.976.21-.976.378zm2.929-.095h.157a.727.727 0 01.284-.094v-.095h-.284c-.105.021-.157.084-.157.19zm4.22-.283l.094.189-.252.189h-.63c0-.105.263-.231.788-.378zm-2.551.189h.346c0 .126-.052.189-.157.189h-.189v-.189zm-5.386.252v.189h.095l.189-.095a.66.66 0 00.346.095h.095c0-.084-.116-.168-.347-.252 0 .042-.031.063-.094.063v-.063a1.003 1.003 0 01-.284.063zm6.362-.063h.095c.105 0 .157.052.157.157v.095h-.252v-.252zm-11.81 1.67v.094h.252c.21-.126.598-.252 1.165-.378 0 .084.084.178.252.283h.094c-.126-.147-.188-.241-.188-.283.188-.105.367-.158.535-.158l.441.095-.095-.19 2.74-.787v-.189l-5.196 1.512zm10.928-1.418h.347c0 .126-.063.189-.189.189h-.158v-.19zm-4.755.189v.157c.189 0 .336.032.441.095v-.19l-.441-.062zm-50.422.44v.442h.094l.095-.441h-.189zm49.351 0c.021.106.084.158.189.158h.094c0-.105-.063-.157-.189-.157h-.094zm-5.638.064v.094h.347v-.094h-.347zm9.071 0h.283c0 .126-.063.189-.189.189h-.094v-.19zm-49.793.378v.157a.727.727 0 01.284-.094V8.2h-.095c-.126.02-.189.084-.189.189zm-1.039-.095v.252c.105 0 .158-.052.158-.157v-.095h-.158zm50.391-.094v.189l-.441.063c0-.126.147-.21.441-.252zm-1.04.252h.441v.189c-.21.063-.336.094-.378.094l-.063-.189v-.094zm-8.566.724v.095h.189c.105 0 .283-.063.535-.19a.539.539 0 00.252.095l.095-.189h-.189c-.147 0-.441.063-.882.189zm-2.803-.094v.094h.347v-.094h-.347zm1.764.535h.252l.252-.189a.72.72 0 00.283.094l.095-.188c-.126 0-.189-.021-.189-.063-.462.125-.693.241-.693.346zm3.59.094h.095c.126 0 .189-.063.189-.189h-.095c-.126.021-.189.084-.189.19zm1.165 0c0-.063-.031-.094-.094-.094 0 .105-.619.304-1.858.598v.19h.283c.147-.106.851-.337 2.11-.694v-.189h-.189l-.252.19zm-4.157.788h.284v-.19h-.095c-.126.022-.189.085-.189.19zm.976 0v.157l.882-.063V10.5a.539.539 0 01-.252-.095 2.414 2.414 0 01-.63.095zm-41.162.094v.252h.283v-.252h-.283zm38.863.599v.094h.189c.21 0 .851-.178 1.922-.535v-.095h-.252c-.336.19-.956.368-1.859.536zm-.157-.252h.157a.727.727 0 01.284-.095v-.094h-.284c-.105.02-.157.084-.157.189zm-2.047.535v.158l.63-.095-.095-.157-.535.094zm-.441.063v.095h.378l-.095-.158a.997.997 0 01-.283.063zm1.858.095h.189c.105 0 .157-.053.157-.158h-.157c-.126 0-.189.053-.189.158zm-1.039.094v.189c.189 0 .336.021.441.063 0-.168.168-.252.504-.252v-.189h-.063c-.42.126-.714.19-.882.19zm-2.047.189v.063h.346c.126 0 .189-.052.189-.157-.063 0-.094-.032-.094-.095-.189.126-.336.189-.441.189zm1.417.063v.095a.66.66 0 00.346-.095l.189.095h.095v-.095c-.189 0-.284-.084-.284-.252-.231.084-.346.168-.346.252zm-2.646.724v.095h.095l1.134-.284c.126.063.22.095.283.095v.094c0 .105-.063.158-.189.158a.924.924 0 01-.346-.063l-.536.252-.189-.095c0 .084-.147.2-.441.347h-.157l-.189-.095c0 .126-.147.19-.441.19l.095.188-.189.063c0-.105-.053-.157-.158-.157a.724.724 0 01-.283.094c.126.147.189.263.189.347h.189l-.095-.19v-.094l.441.095c.105 0 .157-.053.157-.158l.189.063h.189l-.094-.157.157-.095c.021.126.084.19.189.19h.189l-.094-.19.157-.094v.189c.756-.147 1.26-.357 1.512-.63l-.094-.158.283-.44h-.441v.251h-.094v-.252l-1.418.441zm-1.511.504h.378c.105 0 .157-.052.157-.157h-.346c-.126.02-.189.073-.189.157zm-2.268.536v.094h.347v-.189h-.095a.539.539 0 01-.252.095zm2.016 0v.094c.021.126.084.19.189.19h.063v-.284h-.252zm-.693.094a.661.661 0 01-.095.347h.252v-.158l.189.063h.252v-.063c0-.126-.052-.189-.157-.189h-.441zm-.441.19c0 .104-.063.157-.189.157.021.126.084.189.189.189h.157v-.095l-.094-.189c.063 0 .094-.02.094-.063h-.157zm-2.992.787l.063.157a.539.539 0 01-.252.094c.021.126.084.19.189.19.63-.253 1.039-.463 1.228-.63.147 0 .315.063.504.188l.095-.189c-.063 0-.095-.031-.095-.094l.441.095.535-.158c0-.126-.052-.189-.157-.189h-.094l-.284.189c0-.126-.021-.189-.063-.189a.724.724 0 01-.283.095v-.095c-.924.357-1.533.535-1.827.535zm-1.165.44c.021.105.084.158.189.158.42 0 .651-.084.693-.252l-.441-.095v.19h-.095v-.19h-.157c-.126.021-.189.084-.189.19zm-.693.095v.063l.535.094c0-.084-.094-.168-.283-.252a.539.539 0 01-.252.095zm-21.479 7.306h.22c0 .294.042.441.126.441l-.126.536v1.07c0 .085-.031.127-.094.127l.094.22-.094.535h.315a7.78 7.78 0 01.441-1.858h.535c.021-.126.095-.189.22-.189l.441.315.095-.44h.22v.755c.126 0 .273-.357.441-1.07h.315c0 .293.074.44.221.44v.85c0 .064-.042.095-.126.095.084.126.126.347.126.662h.094v-.536h.221v.441c-.147.378-.294 1.774-.441 4.189-.147.483-.504 2.929-1.071 7.338-.063 0-.095.115-.095.346l.095.19c-.147.398-.619 3.285-1.417 8.66-.084 0-.368.284-.851.85-2.162-.146-3.244-.367-3.244-.66l-.755.125c-1.218-.168-1.827-.42-1.827-.756v-.535c.357 0 1.186-3.748 2.488-11.243.105-1.05.252-1.764.441-2.142l-.126-.22c.147-.84.546-2.457 1.197-4.85 0-.358.031-.536.094-.536l-.094-.22c.189-.504.336-.756.441-.756 0 .063.031.094.094.094.168-.86.378-1.512.63-1.952l.22.125h.126c0-.146.032-.22.095-.22h.315v-.22zm28.754-6.235h.094v.283l-.094.22c.126.022.189.095.189.221l-.567 1.008v.126h.095c0-.21.188-.452.566-.724v.094c-.021.126-.336.64-.944 1.543v.126c.566-.357.85-.64.85-.85h.094v.126c0 .357-.252.735-.755 1.134l-.189-.126-.126.22v.095h.315l-.095.22c.084 0 .179.105.284.315v.094l-.504.82v.125h.22v.095c0 .105-.105.21-.315.315 0-.147-.063-.22-.189-.22l-.189.63h.095l.378-.316h.126c0 .105-.137.242-.41.41l.095.22c0 .105-.252.347-.756.724.315.021.472.126.472.315-.462.861-.882 1.376-1.26 1.543-.252.337-.44.504-.566.504v.22h.188v-.22c.126 0 .189.105.189.315h.095l1.165-1.543h.095c-.525 1.071-1.554 2.625-3.087 4.661h-.094v-.094l.409-.724h-.094l-1.166 1.007c-.042.21-.199.494-.472.85l.189.095h.094l.851-.945.094.22c-1.091 1.743-1.732 2.982-1.921 3.717-.063 0-.472.661-1.228 1.984-1.176 1.155-2.236 2.53-3.181 4.126-.504.882-1.018 1.953-1.543 3.212-1.092 2.247-1.701 3.454-1.827 3.622l-.661.63c-.084 0-.126-.032-.126-.095l-.189.095c-.336-.252-1.04-.493-2.11-.724 0-.084-.252-.22-.756-.41l-.189.095c-1.092-.273-1.638-.861-1.638-1.764-.399-1.827-.913-4.965-1.543-9.417-.378-1.406-.892-3.821-1.543-7.243h-.095c0-.82.357-1.229 1.071-1.229 1.092 0 2.341.578 3.748 1.733.231 0 .483.21.756.63 0 .062-.032.094-.095.094.189.546.798 3.244 1.827 8.094h-.095c.126.42.189.693.189.819h.095l6.456-9.732c0-.042 1.018-1.554 3.055-4.535 0-.126.84-1.302 2.52-3.527 0-.273.64-1.134 1.921-2.583.189 0 .504-.073.945-.22l.22.094c0-.063.189-.262.567-.598zm-1.26 3.495v.221h.189c0-.168.063-.346.189-.535v-.095c-.084 0-.21.137-.378.41zm-.661 4.252l-.095.22v.095h.095c0-.084.031-.189.094-.315h-.094zm11.086-1.26c2.498 0 4.682.998 6.551 2.992.377.903.671 1.985.881 3.244 0 .063-.031.095-.094.095l.094.63v.756c0 1.112-.913 2.498-2.74 4.157-3.485 2.12-5.816 3.18-6.991 3.18-.147-.062-.252-.094-.315-.094 0 .126-.074.19-.221.19-.084 0-.126-.032-.126-.095l-.535.094h-.347c-.105 0-.21-.094-.314-.283l.094-.19c-.294-.356-.546-.535-.756-.535-1.449-1.301-2.173-2.33-2.173-3.086l.221-.095h1.637c1.932-.377 4.294-1.522 7.086-3.432 1.239-1.24 1.859-2.027 1.859-2.362l-1.512-.284h-1.323c-1.953.168-4.504 1.354-7.653 3.559-1.617 1.428-2.635 3.118-3.055 5.07.693 1.764 3.569 3.517 8.629 5.26 1.533.483 3.507.997 5.921 1.543l.095.19c-.147.02-.221.073-.221.157l.221.094c.147 0 .22-.084.22-.252h.536v.158h-.315v.189h.22c.798 0 1.197.157 1.197.472 0 .168.147.252.441.252v.283c0 .126-.074.19-.221.19h-.535c-.567 0-1.48-.127-2.74-.379v.19h.315v.188h-.315c-.189-.126-.336-.189-.441-.189v-.189h.221v-.094h-.315l-.347.189h-.094c-.546 0-.84-.095-.882-.284h.535c0-.105-.073-.157-.22-.157h-.315c0 .105-.147.157-.441.157v.095c.21 0 .609.157 1.197.472l.346-.189h.095v.095l-.095.189h.095a.954.954 0 01.346-.095l2.268.725c.294 0 .441.052.441.157h-.221l-1.291-.063h-.126v.063c.063 0 .283.032.661.095v.094c0 .084-.178.21-.535.378-.189-.126-.336-.189-.441-.189l-.22.095c-.567-.252-.935-.378-1.103-.378h-.094l.976.567c-.294 0-.441.147-.441.44h-.661c-.588 0-1.061-.125-1.417-.377-2.478-.61-5.103-1.575-7.874-2.898-1.869-1.302-3.149-2.446-3.842-3.433-.861-.84-1.554-2.866-2.079-6.078l-.094-1.102c.147-1.407.399-2.436.755-3.087.483-.903 1.292-1.774 2.426-2.614 0-.315.65-.798 1.952-1.449 1.05-.608 1.816-1.154 2.299-1.637 1.869-.903 3.622-1.355 5.26-1.355zm6.551 8.598c0 .105-.252.504-.756 1.197h.094c.357 0 .651-.399.882-1.197h-.22zm-.882 1.292c-.168.525-1.292 1.427-3.37 2.708-2.184 1.092-3.349 1.638-3.496 1.638v.094h.315c3.233-.986 5.532-2.435 6.897-4.346l-.22-.094h-.126zm-4.693 11.59h.346v-.158h-.125c-.147 0-.221.053-.221.157zm4.063.66h.315v.158h-.315v-.157zm-3.937.536v.19c.063 0 .168.02.315.062l.094-.157a.902.902 0 01-.409-.095zm.976.82c.168 0 .315.03.441.094l.095-.19-.221-.094h-.094c-.147.021-.221.084-.221.19z" fill="#C62314"/></svg>